<svg xmlns="http://www.w3.org/2000/svg" xml:space="preserve" width="64" height="64">
  <path fill="#FEFEFF" d="M24.47 4.04c-.05 0-.11.02-.16 0-.38-.19-.72-.16-1.1.04-.3.16-.64.29-.98.34-.45.07-.81.29-1.16.55-.33.24-.57.59-.92.79-.8.46-.83 1.43-1.4 2.03-.02.02.01.12 0 .2-.08.44-.1.88-.07 1.32.03.44-.07.85-.13 1.27-.1.72-.09 1.49-.62 2.1a.88.88 0 0 0-.21.42c-.12.69-.43 1.3-.75 1.91-.2.39-.34.81-.49 1.23-.14.4-.23.81-.38 1.21-.27.73-.57 1.44-1.14 2.01-.39.39-.6.91-.75 1.44-.19.69-.21 1.48-.67 2.04-.5.62-.44 1.41-.81 2.05-.01.02-.01.03-.02.05-.2.3-.23.62-.16.96.09.39.05.77.02 1.16-.1 1.16-.46 2.33-.06 3.5.04.11.06.23.1.35.09.29.21.61.08.88-.24.5-.16.99-.04 1.48.13.52.18 1.05.17 1.57-.01.54.05 1.05.32 1.53.15.26.17.57.25.86.15.58.18 1.18.38 1.75.26.77.52 1.55.67 2.35.13.71.31 1.41.8 1.99.17.2.26.46.36.7.15.34.36.65.59.94.64.82 1.46 1.53 1.7 2.61.01.03.04.05.06.08.59.82 1.12 1.71 1.98 2.3.18.12.32.33.43.53.2.36.46.66.77.92.35.3.68.63.93 1 .51.75 1.18 1.29 1.9 1.81.57.41 1.15.81 1.59 1.36.66.83 1.53 1.36 2.48 1.75.96.4 1.94.78 2.92 1.11.49.17.97.4 1.49.44.66.04 1.19.35 1.71.71.22.16.5.28.76.32.76.12 1.32.55 1.8 1.1.21.24.41.48.72.6.56.21 1 .58 1.37 1.04.12.15.27.3.47.31.76.02 1.52.06 2.28-.07.09-.01.19-.04.22-.13.21-.52.41-1.04.6-1.57.04-.12-.05-.24-.09-.35-.1-.3-.12-.61-.09-.94.1-.86.37-1.68.64-2.49.13-.39.27-.82.61-1.09.36-.28.54-.64.65-1.05.09-.36.18-.71.29-1.06.15-.46.25-.94.57-1.34.41-.51.76-1.06.83-1.74.02-.14.05-.28.11-.41.49-1.11.85-2.25 1.11-3.44.16-.74.41-1.46.78-2.13.09-.17.19-.34.2-.54.02-.59.17-1.15.33-1.7.03-.1.08-.2.08-.31 0-.69.16-1.36.26-2.04.08-.55.1-1.11.42-1.6.11-.17.09-.35.02-.55-.18-.51-.19-1.01.01-1.54.12-.32.16-.67.16-1.03.01-.81-.04-1.62-.03-2.43.02-.89 0-1.75-.38-2.58-.15-.32-.17-.68-.09-1.04.08-.37.11-.72-.11-1.07-.1-.15-.12-.36-.17-.54-.19-.84-.48-1.66-.83-2.45-.33-.72-.59-1.45-.64-2.25-.01-.16-.1-.3-.18-.43-.47-.77-1.08-1.48-1.25-2.41-.03-.14-.15-.28-.26-.39-.54-.57-.87-1.27-1.25-1.94-.17-.3-.36-.58-.63-.76-.51-.33-.82-.8-1.13-1.29-.21-.34-.4-.72-.76-.94-.41-.25-.73-.6-1.07-.94-.5-.49-1-1-1.59-1.39-.57-.37-1.05-.88-1.7-1.12-.31-.11-.55-.29-.76-.53-.29-.34-.62-.61-1.08-.68-.11-.02-.22-.1-.32-.16-.68-.44-1.29-.97-1.9-1.5 2.92-.36 5.7-1.16 8.32-2.51.72-.37 1.34-.85 1.93-1.39.18-.17.22-.34.16-.56-.11-.38-.26-.71-.53-1.01-.3-.32-.67-.46-1.06-.63-.6-.25-1.21-.48-1.85-.59-.72-.13-1.42-.31-2.05-.66-.78-.43-1.62-.59-2.47-.72-.93-.15-1.88-.01-2.81-.09-1.25-.11-2.41.25-3.59.51-.17.04-.31.14-.46.21-.71.35-1.35.83-2.13 1.03-.37.1-.77.25-1.02.57-.29.38-.69.59-1.1.79z"/>
  <path fill="#F4CE14" d="M33.14 9.1c.61.53 1.21 1.07 1.9 1.5.1.07.21.15.32.16.46.07.79.35 1.08.68.21.24.45.41.76.53.65.24 1.13.74 1.7 1.12.59.39 1.09.9 1.59 1.39.34.33.66.68 1.07.94.36.22.54.6.76.94.31.49.62.96 1.13 1.29.27.18.46.46.63.76.38.67.71 1.37 1.25 1.94.11.11.23.25.26.39.17.93.78 1.64 1.25 2.41.08.14.17.28.18.43.06.79.32 1.52.64 2.25.35.79.64 1.6.83 2.45.04.18.07.39.17.54.22.35.2.7.11 1.07-.08.36-.06.72.09 1.04.38.83.4 1.69.38 2.58-.02.81.03 1.62.03 2.43 0 .36-.04.71-.16 1.03-.2.53-.19 1.03-.01 1.54.07.2.09.39-.02.55-.32.49-.34 1.05-.42 1.6-.1.68-.26 1.35-.26 2.04 0 .1-.04.2-.08.31-.17.56-.31 1.12-.33 1.7-.01.2-.1.37-.2.54-.37.67-.62 1.39-.78 2.13-.26 1.18-.63 2.33-1.11 3.44-.06.13-.09.27-.11.41-.07.68-.42 1.22-.83 1.74-.32.4-.42.88-.57 1.34-.11.35-.2.71-.29 1.06-.11.42-.29.77-.65 1.05-.34.27-.48.7-.61 1.09-.27.81-.55 1.63-.64 2.49-.04.32-.01.63.09.94.04.12.13.24.09.35-.19.53-.39 1.05-.6 1.57-.03.09-.13.11-.22.13-.76.12-1.52.09-2.28.07-.2-.01-.35-.16-.47-.31-.37-.46-.81-.83-1.37-1.04-.31-.12-.51-.36-.72-.6-.48-.55-1.04-.97-1.8-1.1a1.9 1.9 0 0 1-.76-.32c-.52-.37-1.05-.67-1.71-.71-.53-.03-1.01-.27-1.49-.44-.99-.34-1.96-.72-2.92-1.11-.96-.39-1.82-.92-2.48-1.75-.44-.55-1.02-.95-1.59-1.36-.71-.52-1.39-1.07-1.9-1.81-.25-.37-.58-.7-.93-1-.31-.26-.57-.55-.77-.92-.11-.2-.25-.4-.43-.53-.86-.6-1.39-1.48-1.98-2.3-.02-.03-.05-.05-.06-.08-.23-1.09-1.05-1.79-1.7-2.61-.23-.29-.44-.59-.59-.94-.11-.24-.2-.51-.36-.7-.49-.58-.67-1.27-.8-1.99-.15-.81-.41-1.58-.67-2.35-.19-.58-.23-1.17-.38-1.75-.07-.29-.1-.6-.25-.86-.27-.48-.33-.99-.32-1.53.01-.53-.04-1.05-.17-1.57-.12-.49-.2-.98.04-1.48.13-.27.01-.59-.08-.88-.03-.12-.06-.24-.1-.35-.4-1.18-.04-2.34.06-3.5.03-.39.07-.77-.02-1.16-.08-.34-.05-.67.16-.96.01-.01.01-.03.02-.05.37-.64.3-1.43.81-2.05.46-.56.48-1.35.67-2.04.15-.53.36-1.04.75-1.44.57-.57.87-1.28 1.14-2.01.14-.4.24-.81.38-1.21.15-.42.29-.84.49-1.23.32-.61.62-1.22.75-1.91a.8.8 0 0 1 .21-.42c.53-.6.52-1.37.62-2.1.06-.42.16-.84.13-1.27-.03-.44-.01-.88.07-1.32.01-.07-.02-.18 0-.2.57-.6.61-1.57 1.4-2.03.34-.2.59-.55.92-.79.36-.26.71-.47 1.16-.55.34-.05.68-.18.98-.34.38-.2.72-.23 1.1-.04.04.02.1 0 .16 0 .14.23.37.25.55.12.47-.33 1.02-.39 1.55-.51.71-.16 1.41-.29 2.15-.2.28.04.57.02.84-.06.38-.11.77-.11 1.16-.13.71-.04 1.41.15 2.11.11 1.16-.06 2.27.3 3.42.29.17 0 .35.05.52.1.28.07.55.13.84.12.25-.01.47.08.68.18-.04.09-.11.1-.18.1-.92.04-1.84.06-2.76.01-.39-.02-.78-.05-1.17-.01-1.2.11-2.4.12-3.6.15-1.17.03-2.33.01-3.5.03-.44.01-.88.06-1.32.09-.1.01-.23-.01-.27.11-.04.11.06.19.13.27.31.34.61.68.98.96.38.29.74.6 1.02 1 .16.22.37.38.62.48.41.17.81.35 1.25.42.27.04.51.15.74.29.9.54 1.9.82 2.9 1.13zm.31 9.88c-.01-.1 0-.19-.02-.27-.16-.7-.28-1.41-.31-2.13-.01-.16-.02-.33-.1-.46-.3-.49-.27-1.03-.29-1.56-.01-.25-.05-.48-.18-.71-.3-.52-.57-1.06-.79-1.61-.09-.22-.22-.41-.38-.57-.93-.89-1.84-1.8-2.67-2.78a.801.801 0 0 0-.19-.18 6.87 6.87 0 0 1-1.95-1.77c-.08-.11-.2-.2-.31-.29-.37-.33-.75-.65-1.1-1-.27-.27-.57-.47-.92-.61-.47-.19-1.11-.06-1.43.35-.26.33-.52.67-.67 1.08-.13.35-.32.67-.54.97-.36.51-.6 1.09-.77 1.71-.16.6-.3 1.2-.41 1.8-.13.71-.36 1.4-.26 2.14.12.84.35 1.65.48 2.49.01.1.06.2.12.29.5.81.97 1.64 1.59 2.37.47.56 1.01 1.03 1.7 1.32.26.11.52.23.75.39.61.44 1.29.73 1.97 1.03 1.02.44 2.07.83 2.96 1.52.08.06.18.11.29.13.62.15 1.19.43 1.74.77.39.24.82.42 1.3.42.6 0 .87-.46.61-1-.09-.18-.18-.39-.18-.58.01-1.1-.29-2.18-.04-3.26z"/>
  <path fill="#495F57" d="M33.14 9.1c-.99-.31-2-.59-2.91-1.13-.23-.13-.46-.24-.73-.28-.44-.07-.85-.25-1.25-.42-.25-.1-.46-.26-.62-.48-.28-.39-.63-.71-1.02-1-.37-.28-.67-.63-.98-.96-.07-.08-.17-.15-.13-.27.04-.12.17-.11.27-.11.44-.03.88-.08 1.32-.09 1.17-.02 2.33 0 3.5-.03 1.2-.03 2.4-.04 3.6-.15.39-.04.78-.01 1.17.01.92.05 1.84.03 2.76-.01.07 0 .14-.01.18-.1-.22-.1-.43-.19-.68-.18-.28.01-.56-.05-.84-.12-.17-.04-.35-.1-.52-.1-1.15 0-2.26-.35-3.42-.29-.7.03-1.4-.15-2.11-.11-.39.02-.78.02-1.16.13-.28.08-.56.1-.84.06-.73-.09-1.44.04-2.15.2-.53.12-1.08.19-1.55.51-.18.13-.41.11-.55-.12.41-.2.81-.41 1.1-.79.25-.32.65-.47 1.02-.57.78-.21 1.42-.69 2.13-1.02.15-.07.29-.17.46-.21 1.18-.26 2.35-.62 3.59-.51.93.08 1.87-.06 2.81.09.85.13 1.7.29 2.47.72.63.35 1.33.53 2.05.66.64.12 1.25.34 1.85.59.39.16.76.3 1.06.63.27.3.43.63.53 1.01.06.23.02.4-.16.56-.59.54-1.21 1.02-1.93 1.39-2.62 1.33-5.4 2.13-8.32 2.49zM33.45 18.98c-.24 1.08.06 2.17.03 3.26 0 .19.09.4.18.58.26.55-.01 1.01-.61 1-.47 0-.91-.18-1.3-.42-.55-.34-1.11-.61-1.74-.77-.1-.02-.2-.07-.29-.13-.89-.7-1.94-1.08-2.96-1.52-.68-.3-1.36-.59-1.97-1.03-.23-.16-.49-.28-.75-.39-.69-.29-1.23-.76-1.7-1.32-.62-.73-1.09-1.56-1.59-2.37a.813.813 0 0 1-.12-.29c-.12-.84-.36-1.65-.48-2.49-.1-.74.13-1.43.26-2.14.11-.61.25-1.21.41-1.8.16-.62.41-1.2.78-1.72.22-.3.4-.62.54-.97.15-.4.41-.74.67-1.08.32-.4.95-.54 1.43-.35.35.14.65.34.92.61.35.35.72.67 1.09 1.01.1.1.22.18.31.29a6.87 6.87 0 0 0 1.95 1.77c.07.04.14.11.19.18.83.98 1.74 1.89 2.67 2.78.16.16.3.35.38.57.22.56.49 1.09.79 1.61.13.22.17.45.18.71.02.53-.01 1.07.29 1.56.08.13.09.31.1.46.03.72.15 1.43.31 2.13.03.08.02.17.03.27zm-2.41 1.13c-.09-.4-.26-.61-.38-.83-.39-.71-.91-1.35-1.18-2.12-.21-.61-.54-1.15-.86-1.69-.63-1.06-1.25-2.13-1.77-3.25-.29-.64-.68-1.23-1.1-1.8-.24-.32-.47-.64-.6-1.03-.23-.66-.65-1.17-1.27-1.66.11.76.29 1.4.54 2.02.42 1.05.91 2.06 1.39 3.08.57 1.19 1.08 2.4 1.84 3.48.11.16.21.32.31.48.23.37.4.78.72 1.09.27.26.51.53.74.83.41.54.98.92 1.62 1.4z"/>
  <path fill="#F4CD13" d="M31.04 20.11c-.64-.48-1.21-.86-1.64-1.41-.23-.29-.47-.57-.74-.83-.32-.31-.49-.72-.72-1.09-.1-.16-.2-.32-.31-.48-.76-1.08-1.27-2.3-1.84-3.48-.48-1.02-.97-2.03-1.39-3.08-.25-.62-.42-1.26-.54-2.02.62.49 1.04 1.01 1.27 1.66.13.39.37.71.6 1.03.43.57.81 1.16 1.1 1.8.52 1.12 1.14 2.19 1.77 3.25.32.55.65 1.09.86 1.69.27.77.79 1.41 1.18 2.12.14.24.3.45.4.84z"/>
</svg>
