<svg xmlns="http://www.w3.org/2000/svg" xml:space="preserve" viewBox="0 0 125 220">
  <path fill="#495E57" d="m16.1 12.6-2.3 4.2H9V3a24.1 24.1 0 0 0 2.3-.5l.2-1.7H2.9l-.1 1.7 1.8.4V17l-1.6.6-.1 1.6H17c.6-2 .9-4.2.9-6.6H16zM31 17.1V3l1.5-.5.2-1.7h-8v1.7l1.8.4V17l-1.6.6-.2 1.6h8v-1.7l-1.8-.4zM55.4.8H39.6c-.3 2-.4 4-.3 6h1.9l1.7-3.6h2.4V17l-.7.2c-.5 0-.9.2-1.2.4l-.2 1.6h8.5l.1-1.7-2-.4V3.2h2.4L53.9 7h1.8c.2-2.1 0-4.1-.3-6zM78 .8H62.1c-.4 2-.5 4-.3 6h1.8l1.7-3.6h2.4V17l-.7.2c-.4 0-.8.2-1.2.4l-.1 1.6h8.5v-1.7l-2-.4V3.2h2.4L76.4 7h1.8c.2-2.1.1-4.1-.3-6zm20.1 11.8-2.3 4.2H91V3a24.1 24.1 0 0 0 2.3-.5l.2-1.7h-8.7l-.1 1.7 1.8.4V17l-1.6.6-.1 1.6H99c.6-2 .9-4.2.9-6.6H98zm22.2.8-2 3.4H113V11h5.8l.2-2.5h-6V3.2h5.3l1.4 3.1h2a19.4 19.4 0 0 0-.4-5.5h-14.5v1.7l1.7.4V17l-1.6.6-.1 1.6h14.8a21.5 21.5 0 0 0 .8-5.8h-2zM15.7 211.9l-2.4 4.1H8.6v-13.7a24.1 24.1 0 0 0 2.4-.6l.1-1.6H2.5l-.1 1.7 1.8.4v14.1l-1.6.5-.2 1.7h14.2c.5-2 .8-4.3.8-6.6h-1.7zm22.2.7-2 3.5h-5.5v-5.8h5.9l.1-2.5h-6v-5.3h5.3l1.5 3.1h2a19.4 19.4 0 0 0-.4-5.5H24.3l-.1 1.7 1.8.4v14.1l-1.6.6-.1 1.6H39a21.5 21.5 0 0 0 .8-5.9h-2zm32 3.8-1-14.1 1.7-.6.2-1.6h-7.5l-4.2 12.3-4.4-12.3h-7.4l-.1 1.7 2 .4-1 14.1-1.5.5-.1 1.7H53l.1-1.7-2-.4.7-11.8 4.8 13a16.2 16.2 0 0 0 3.4-.1l4.8-13 .7 11.8-.7.2c-.4 0-.8.2-1.1.4l-.2 1.6h8v-1.7l-1.6-.4zM96 204.2c-.8-1.4-1.9-2.5-3.3-3.3s-3-1.1-5-1.1-3.6.4-5 1.1-2.5 2-3.2 3.3c-.8 1.5-1.2 3.2-1.2 5.1 0 2 .4 3.6 1.2 5 .7 1.5 1.8 2.6 3.2 3.3s3 1.2 5 1.2 3.6-.4 5-1.2 2.5-1.8 3.3-3.3c.7-1.4 1.1-3 1.1-5s-.4-3.7-1.1-5zm-7.8 12.2a4 4 0 0 1-3.6-2c-.8-1.4-1.2-3.3-1.2-5.8 0-4.3 1.3-6.5 3.9-6.5a4 4 0 0 1 3.5 2c.9 1.4 1.3 3.4 1.3 6 0 4.2-1.3 6.3-4 6.3zm34.8-16.3h-6.4v1.7l1.7.4v9.6l-9.6-11.7h-4.5l-.2 1.7 1.9.6v13.9l-1.6.5-.1 1.7h6.6l.2-1.7-2.1-.4V207l9.6 11.7 2.8-.1v-16.2a9 9 0 0 0 1.5-.6l.1-1.6z"/>
  <path fill="#FEFEFF" d="M55.2 66.5H55c-.6-.3-1.1-.3-1.7 0-.4.3-1 .5-1.4.6a4 4 0 0 0-1.8.8c-.5.3-.8.9-1.4 1.2-1.2.7-1.2 2.1-2 3v.3c-.2.7-.2 1.3-.2 2 0 .6 0 1.2-.2 1.9-.1 1 0 2.2-.9 3.1-.1.2-.3.4-.3.7-.2 1-.6 1.9-1.1 2.8l-.7 1.9-.6 1.8a8 8 0 0 1-1.7 3c-.6.6-1 1.3-1.1 2.1-.3 1-.4 2.2-1 3-.8 1-.7 2.2-1.2 3.2-.4.5-.4 1-.3 1.5v1.7c-.2 1.7-.7 3.5 0 5.2v.6c.2.4.4.9.2 1.3-.4.7-.3 1.4-.1 2.2l.3 2.3c0 .9 0 1.6.4 2.3.3.4.3.9.4 1.3l.6 2.7 1 3.5a6 6 0 0 0 1.2 3l.5 1c.2.5.6 1 1 1.4.9 1.2 2.1 2.3 2.4 4h.1c1 1.3 1.7 2.6 3 3.5.3.2.5.5.6.8.3.5.7 1 1.2 1.3l1.4 1.5a11 11 0 0 0 2.8 2.7c.9.7 1.8 1.3 2.4 2 1 1.3 2.3 2.1 3.7 2.7l4.4 1.7c.7.2 1.4.6 2.2.6a6 6 0 0 1 2.6 1.1l1.1.5c1.2.2 2 .8 2.7 1.6.4.4.7.8 1.1 1 .9.3 1.5.8 2 1.5.3.2.5.5.8.5l3.4-.1c.1 0 .3 0 .3-.2l1-2.4-.2-.5c-.2-.4-.2-1-.1-1.4a12 12 0 0 1 1-3.7c.1-.6.3-1.2.8-1.6.6-.5.9-1 1-1.6l.5-1.6c.2-.7.3-1.4.8-2 .6-.8 1.1-1.6 1.2-2.6l.2-.6c.7-1.7 1.3-3.4 1.7-5.2.2-1 .6-2.2 1.1-3.2.2-.2.3-.5.3-.8 0-.9.3-1.7.5-2.5l.1-.5c0-1 .3-2 .4-3 .1-.9.2-1.7.7-2.4v-.9a3 3 0 0 1 0-2.3c.2-.5.2-1 .2-1.5v-3.7c0-1.3 0-2.6-.6-3.8-.2-.5-.2-1-.1-1.6.1-.5.2-1-.2-1.6l-.2-.8c-.3-1.2-.7-2.5-1.3-3.6-.5-1.1-.8-2.2-1-3.4 0-.2 0-.4-.2-.7-.7-1.1-1.6-2.2-1.9-3.6 0-.2-.2-.4-.4-.6-.8-.8-1.3-1.9-1.8-2.9l-1-1.1a5.8 5.8 0 0 1-1.7-2c-.3-.4-.6-1-1.1-1.3l-1.6-1.4c-.8-.8-1.5-1.5-2.4-2.1-.8-.6-1.6-1.3-2.5-1.7-.5-.2-.9-.4-1.2-.8-.4-.5-.9-.9-1.6-1-.2 0-.3-.2-.5-.3-1-.6-2-1.4-2.8-2.2a33.8 33.8 0 0 0 15.4-5.8c.2-.3.3-.6.2-.9-.2-.6-.4-1-.8-1.5-.5-.5-1-.7-1.6-1-1-.3-1.8-.7-2.8-.8-1-.2-2.1-.5-3-1a11 11 0 0 0-3.8-1.1c-1.3-.2-2.8 0-4.2-.1-1.8-.2-3.6.3-5.3.7-.3 0-.5.2-.7.3-1.1.5-2 1.3-3.2 1.6-.6.1-1.2.3-1.5.8a4 4 0 0 1-1.7 1.2z"/>
  <path fill="#F4CE14" d="M68.2 74c.9.9 1.8 1.7 2.8 2.3l.5.3c.7 0 1.2.5 1.6 1 .3.3.7.6 1.2.8 1 .3 1.7 1.1 2.5 1.6.9.6 1.6 1.4 2.4 2.1l1.6 1.4c.5.4.8 1 1.1 1.4.5.8 1 1.5 1.7 2 .4.2.7.7 1 1.1.5 1 1 2 1.8 3 .2 0 .4.3.4.5.3 1.4 1.2 2.5 1.9 3.6l.3.7c0 1.2.4 2.3 1 3.3a22.9 22.9 0 0 1 1.4 4.5c.3.5.3 1 .2 1.6-.1.5 0 1 .1 1.6.6 1.2.6 2.5.6 3.8v3.7c0 .5 0 1-.2 1.5a3 3 0 0 0 0 2.3c0 .3.1.6 0 .8-.5.8-.6 1.6-.7 2.4-.1 1-.4 2-.4 3v.5a10 10 0 0 0-.6 2.6c0 .3-.1.5-.3.8-.5 1-.9 2-1.1 3.2a27.4 27.4 0 0 1-1.9 5.8 5 5 0 0 1-1.2 2.6c-.5.5-.6 1.3-.9 2l-.4 1.5c-.2.7-.4 1.2-1 1.6-.5.4-.7 1-.9 1.7-.4 1.2-.8 2.4-1 3.7 0 .5 0 1 .2 1.4 0 .2.2.3.1.5a59.6 59.6 0 0 1-1.2 2.5 13 13 0 0 1-3.4.1.8.8 0 0 1-.7-.4 4.9 4.9 0 0 0-2.1-1.6c-.5-.2-.8-.5-1-.9a4.5 4.5 0 0 0-2.8-1.6l-1.1-.5a5 5 0 0 0-2.6-1c-.8-.1-1.5-.5-2.2-.8l-4.4-1.6a9 9 0 0 1-3.7-2.6 7.6 7.6 0 0 0-2.4-2c-1-.9-2-1.7-2.8-2.8l-1.4-1.5a4 4 0 0 1-1.2-1.4c-.1-.3-.3-.6-.6-.8-1.3-.9-2-2.2-3-3.4v-.1c-.4-1.7-1.6-2.7-2.6-4-.3-.4-.7-.8-.9-1.3l-.5-1a6 6 0 0 1-1.2-3l-1-3.6c-.3-.8-.4-1.7-.6-2.6l-.4-1.3c-.4-.7-.5-1.5-.5-2.3a9 9 0 0 0-.2-2.3c-.2-.8-.3-1.5 0-2.3.2-.4 0-.8 0-1.3l-.2-.5c-.6-1.8 0-3.5 0-5.2.1-.6.2-1.2 0-1.8 0-.5 0-1 .3-1.4.6-1 .5-2.2 1.2-3.1.7-.9.8-2 1-3.1.3-.8.6-1.6 1.2-2.2a8 8 0 0 0 1.7-3l.5-1.8.8-1.8c.5-1 1-1.8 1.1-2.9l.3-.6c.8-1 .8-2 1-3.2 0-.6.2-1.2.1-1.9l.1-2v-.2c.9-1 1-2.4 2.1-3l1.4-1.3a4 4 0 0 1 1.7-.8c.5 0 1-.2 1.5-.5.6-.3 1-.3 1.6 0h.3c.2.3.5.3.8.1.7-.4 1.5-.5 2.3-.7 1-.3 2.1-.5 3.2-.3l1.3-.1c.6-.2 1.1-.2 1.7-.2l3.2.2c1.7-.1 3.4.4 5.1.4l.8.1 1.3.2c.3 0 .7.1 1 .3l-.3.2h-5.9l-5.4.2h-5.2l-2 .1c-.1 0-.3 0-.4.2l.2.4 1.5 1.5 1.5 1.5c.2.3.6.5 1 .7.5.2 1.1.5 1.8.6.4 0 .8.2 1.1.4 1.4.9 2.9 1.3 4.4 1.8zm.4 14.8v-.4l-.5-3.2-.1-.6c-.5-.8-.4-1.6-.4-2.4a2 2 0 0 0-.3-1 20 20 0 0 1-1.2-2.4c-.1-.4-.3-.6-.6-.9a56 56 0 0 1-4-4.1l-.3-.3c-1.1-.7-2-1.6-2.9-2.7l-.5-.4-1.6-1.5a4 4 0 0 0-1.4-1 2 2 0 0 0-2 .6c-.5.5-.9 1-1 1.6l-.9 1.4c-.6.8-1 1.7-1.2 2.6l-.6 2.7c-.2 1-.5 2.1-.4 3.2.2 1.3.6 2.5.7 3.8l.2.4c.8 1.2 1.5 2.4 2.4 3.5.7.9 1.5 1.6 2.6 2 .3.2.7.3 1 .6l3 1.5c1.6.7 3.1 1.3 4.5 2.3l.4.2a9 9 0 0 1 2.6 1.2c.6.3 1.2.6 2 .6s1.2-.7.8-1.5l-.2-.9c0-1.6-.4-3.2 0-4.9z"/>
  <path fill="#495F57" d="M68.2 74c-1.5-.4-3-.8-4.4-1.6l-1-.5c-.7 0-1.3-.3-2-.6a2 2 0 0 1-.9-.7c-.4-.6-1-1-1.5-1.5-.6-.4-1-1-1.5-1.4l-.2-.4c0-.2.3-.2.4-.2l2-.1h5.2l5.4-.3h1.8a47.4 47.4 0 0 0 4.4-.2l-1-.2-1.3-.2-.8-.2c-1.7 0-3.4-.5-5-.4l-3.3-.2c-.5 0-1.1 0-1.7.2a3 3 0 0 1-1.3.1 9 9 0 0 0-3.2.3c-.8.2-1.6.3-2.3.8-.3.2-.6.2-.8-.2.6-.3 1.2-.6 1.6-1.2.4-.5 1-.7 1.6-.8 1.1-.3 2-1 3.1-1.5l.7-.4c1.8-.3 3.5-.9 5.4-.7 1.4.1 2.8-.1 4.2.1 1.3.2 2.6.4 3.7 1 1 .6 2 .9 3 1 1 .2 2 .6 2.9 1 .5.2 1.1.4 1.5 1 .4.3.7.9.8 1.4.1.4 0 .6-.2.9-.9.8-1.8 1.5-2.9 2a38 38 0 0 1-12.4 3.8zm.4 14.8c-.3 1.7.1 3.3 0 5l.3.8c.4.8 0 1.5-.9 1.5-.7 0-1.3-.3-1.9-.6a9 9 0 0 0-2.6-1.2c-.2 0-.3 0-.4-.2-1.4-1-3-1.6-4.5-2.3l-3-1.5-1-.6c-1-.4-1.9-1.1-2.6-2-.9-1-1.6-2.3-2.4-3.5l-.1-.4-.8-3.8c-.1-1 .2-2.1.4-3.2l.6-2.7a8 8 0 0 1 1.2-2.6l.8-1.4c.2-.6.6-1.1 1-1.6a2 2 0 0 1 2.2-.5c.5.2 1 .5 1.3.9l1.7 1.5.4.4c.8 1.1 1.8 2 3 2.7l.2.3a52.4 52.4 0 0 0 4.6 5l1.2 2.4c.2.3.3.7.3 1 0 .8 0 1.6.4 2.4l.1.7c0 1 .3 2.1.5 3.1v.4zM65 90.6c-.1-.6-.4-1-.6-1.3-.5-1-1.3-2-1.7-3.2-.3-.9-.8-1.7-1.3-2.5a52 52 0 0 1-2.6-4.9c-.5-1-1-1.8-1.7-2.7-.4-.4-.7-1-.9-1.5-.3-1-1-1.8-1.9-2.5.2 1.1.4 2 .8 3l2 4.6c1 1.8 1.7 3.6 2.8 5.2l.5.8 1 1.6 1.2 1.2c.6.9 1.5 1.4 2.4 2.1z"/>
  <path fill="#F4CD13" d="M65 90.5c-1-.7-1.8-1.2-2.4-2-.4-.5-.7-1-1.1-1.3-.5-.5-.8-1-1.1-1.6l-.5-.7c-1.1-1.7-1.9-3.5-2.7-5.3a38.2 38.2 0 0 1-2.9-7.6c1 .7 1.6 1.5 1.9 2.5.2.6.5 1 .9 1.5.6.9 1.2 1.8 1.6 2.7.8 1.7 1.7 3.3 2.7 4.9.5.8 1 1.6 1.3 2.5.4 1.2 1.1 2.1 1.7 3.2.2.4.5.7.6 1.3z"/>
  <path fill="#495E57" d="M122.4 176.9c-1.8-.2-3.7-.2-5.4-.2a159.2 159.2 0 0 1-9 0h-4.5a86.2 86.2 0 0 1-10.7 0h-4.3a43.4 43.4 0 0 0-5.1 0 112.5 112.5 0 0 0-8 0h-1.9l-1.8.1H69c-1.2-.2-2.5-.3-3.7-.2-2.2.3-4.3.2-6.4.2h-3.3a73.7 73.7 0 0 1-9.5-.2l-4.5-.1c-.6 0-1.2 0-1.8.2-.7.2-1.3.2-1.9.2h-.8c-.7-.1-1.5-.2-2.3-.1h-6.7l-4.2.1-3-.1-3.3-.1a228.2 228.2 0 0 1-6 .2H7.2l-.1-.1H4.9l-.1-.9v-1c.3-1.3.2-2.6 0-3.7a11 11 0 0 1 0-3.9c.3-.8.2-1.6.1-2.4-.2-1.8-.3-3.4 0-5v-.6c.2-.7.4-1.4.2-2.1-.3-1.4-.2-2.8-.2-4.1v-3.9c-.1-2-.2-4 0-6v-6.7c.1-1.2.2-2.5-.1-3.8-.2-.8-.2-1.7 0-2.5.2-1 .2-2 0-2.8a17 17 0 0 1 0-3.2 22 22 0 0 0 0-3.3c0-1.6-.1-3.3.4-4.8v-.1c-.2-.8-.2-1.5-.2-2.3l-.1-2.5c-.4-1.6-.3-3.4-.2-5V105A126.8 126.8 0 0 0 5 91.8c0-1.7 0-3.4-.2-5.2v-2l.2-1.7a51.3 51.3 0 0 0 0-6.3V59.3c0-.5 0-1.5-1-1.9a1.8 1.8 0 0 0-2.6 1.9V64l-.2 7.8v.4c-.1 1.9 0 3.8.2 5.4.2 1.5.2 3.1 0 4.8A56.8 56.8 0 0 0 1 93v1a7 7 0 0 1 0 2.2 4 4 0 0 0 0 1.7c.3 1.6.3 3.2 0 5.4-.2 1.5-.1 3-.1 4.4v3.3c0 .4 0 .8.2 1.3.6 1.5.4 3 .1 4.4v.4c-.2.5-.3 1-.3 1.6v7.2l.1 2c.2.4.2 1 0 1.6a9 9 0 0 0 0 4c.4 1.1.3 2.1.2 3.4v.7a14 14 0 0 0 0 5l-.1.8a5 5 0 0 0-.2 2.4c.2 1.9.2 3.8.2 5.6 0 2.2 0 4.4.3 6.7 0 .3 0 .7-.2 1l-.3 1.2v1.6c0 1.2 0 2.5.3 3.8v.9l-.1.1-.2.8v.8c0 1.5 0 3 .4 4.5v.9c-.6 1.7-.4 3.4-.3 5 .1.7.4 1.2 1 1.5 1.1.5 2.4.6 3.6.3H7c1.3.3 2.8.3 4.3 0l1.3.1c.6.1 1.5.3 2.3-.1a2 2 0 0 1 1.6-.1c.5.2 1.1.2 1.7 0a2 2 0 0 1 1.4 0l1.5.3h12.2l1.1-.1c.8-.3 1.5-.2 2.2 0h.2l1.7.2c.4 0 .9 0 1.3-.3a5.6 5.6 0 0 1 3.3-.2c.4.1.9.2 1.3 0h4.8l.5.1h.1c1 .4 1.9.4 2.8 0H54c1.7.4 3 .4 4.3 0a8 8 0 0 1 3.1 0 6 6 0 0 0 1.8.2h.1l1.4-.2 1.4-.2 2.8.2 2.8.2h.4c.5 0 1.1 0 1.7-.3h.7c.7.4 1.4.4 2 .4H80c1.7-.1 3.3-.2 5 0 .5 0 1 0 1.3-.2.6-.3 1.2-.3 1.7 0h1.2c.8-.4 1.6-.3 2.4-.2h4.1a37 37 0 0 0 6.3.2 112.8 112.8 0 0 1 7.7-.1c1.2 0 2.4.2 3.7-.1.8.3 1.7.3 2.6.2h1.6l3.3.1h1.9c.8 0 1.4-.7 1.5-1.4 0-.6 0-1-.4-1.5a2 2 0 0 0-1.4-.7zm2.2-59.2c-.3-.5-.3-1-.3-1.7v-6.2a113.5 113.5 0 0 0 .2-7c.2-.5.2-.9 0-1.2-.4-.7-.3-1.5-.3-2.4v-.4c.1-1.1.2-2.2 0-3.3a14 14 0 0 1 .1-4.6 18.5 18.5 0 0 0 .3-4.2v-1.3a7 7 0 0 1-.1-4.5v-.6c-.4-.7-.3-1.6-.3-2.4v-1.4l.1-2.6V71l.1-.3c.2-.4.2-.8 0-1.1l-.2-2v-3.3c.1-1.2.2-2.4 0-3.6-.1-2 0-4 .4-6v-2.4c-.4-2.6-.5-4.8-.3-6.7.2-2 .1-4 0-6v-1.5a2 2 0 0 0-.4-1.2c-.6-.7-1.3-.7-1.9-.6H95.7a272.6 272.6 0 0 1-8.8.1c-1.5 0-3 .1-4.6-.1a25 25 0 0 0-5-.2h-1.5l-2.3.1a58.9 58.9 0 0 1-6.9 0c-1.6.3-3.3.2-4.9.1H61l-8-.2-3 .2-4.1.1h-1.6a23 23 0 0 0-2.8 0l-1.5-.1a12.6 12.6 0 0 0-2.4 0c-1 0-1.8 0-2.7-.2h-.3c-.8.2-1.6.2-2.4.2l-2.6-.1-2.3-.1h-2.8l-2.3.2h-1.4c-1.5-.1-3-.1-4.5.1h-1c-1-.2-2-.2-2.9-.2h-1.1c-1.2.1-2.4.2-3.6 0H5.8l-2.7-.1h-.6l-.1.1a2 2 0 0 0-1.3 1.7c0 .6.8 1.5 1.5 1.6l5.3.5h1c1.7-.2 3.4-.2 5 0 1.6.1 3.3.3 5-.2h1c1 .2 2 .2 3 .1a28 28 0 0 1 2.4 0l.1-.1c1.1-.3 2.2-.3 3.1 0 .5.2 1 .3 1.5.2h2.8c.6.1 1.2.1 1.7-.2.3-.1.5-.1.8 0 .9.4 1.8.4 3 0h.6c.6.3 1.3.3 1.9.3a14.8 14.8 0 0 1 2.6 0h1.5L50 40l.8-.2.9-.2H60c.7.5 1.5.5 2.3.5h1.8c1 0 2.2 0 3.3-.3h.5c1.3.3 2.7.3 4 .2h2.6l.5-.1a16 16 0 0 1 4.2-.3h1.6l.4.1c.7.4 1.4.4 2.2.4h2c3.6 0 7.3-.1 11-.4a9 9 0 0 1 3.2.2c1 .3 2 .2 2.8 0h.6c1.9.3 3.7.2 5.5.1h3.4c.3 0 .7 0 1-.2h1.3a3 3 0 0 0 2 0c.5 0 1-.1 1.6 0h2c.9.1 1.1.3 1.1 1.2 0 1.4 0 2.9-.3 4.7-.1 1.4 0 2.7.1 4l.2 2.5v3.6c-.6 2-.6 4.2 0 6.7l-.1.8a9.5 9.5 0 0 0-.1 5.3v2.2c-.1.9-.2 1.8.1 2.7v.1a7.2 7.2 0 0 0-.3 3.6v2.3c0 .3 0 .6.2.8.1.3.2.5 0 .7-.3.9-.3 1.7-.2 2.6v.2l.2 1.2.3 1.5V88c0 .7 0 1.4-.2 2a15.8 15.8 0 0 0-.2 6.4c.2.3.3.8.2 1.4v.2a9.1 9.1 0 0 0 0 4c.2.9 0 2 0 3v2.7c0 1.1 0 2.3-.3 3.4v.7l.1 2v1.2l.1 2c.3 1 .3 2 0 3.2-.3 1-.3 2 0 3.1.3 1.3.2 2.7 0 3.9a27 27 0 0 0 0 8.6c.2.7.2 1.2 0 1.7a9.5 9.5 0 0 0-.1 4.6v1.5l-.2 5.2v3.5c.2 1.9.3 3.5.2 5 0 1 .4 1.6 1.3 2l.5.1c.5 0 1-.4 1.3-.6.5-.4.5-.9.5-1.3v-3.7c0-1.1-.2-2.3 0-3.4v-6a75.4 75.4 0 0 1 0-8.9v-.4c-.1-3-.1-5.7.1-8.2l.1-.6c0-.5.2-1 0-1.5a17 17 0 0 1 .1-6c.2-.3.3-.7 0-1.1z"/>
</svg>
