<?xml version="1.0" encoding="utf-8"?>
<!-- Generator: Adobe Illustrator 27.4.1, SVG Export Plug-In . SVG Version: 6.00 Build 0)  -->
<svg version="1.1" id="Layer_1" xmlns="http://www.w3.org/2000/svg" xmlns:xlink="http://www.w3.org/1999/xlink" x="0px" y="0px"
	 width="125px" height="220px" viewBox="0 0 125 220" enable-background="new 0 0 125 220" xml:space="preserve">
<g>
	<path fill="#495E57" d="M16.13,12.62l-2.36,4.17H9.06v-0.96V4.21v-1.2c0.36-0.06,0.71-0.13,1.04-0.2c0.53-0.12,0.97-0.23,1.32-0.34
		l0.13-1.63H2.92L2.79,2.5l1.82,0.4v1.31v11.62v1.2C3.97,17.2,3.43,17.38,3,17.57L2.87,19.2h4.08h3.8H17
		c0.58-2.04,0.87-4.24,0.87-6.59H16.13z"/>
	<path fill="#495E57" d="M30.91,17.14v-1.31V4.21v-1.2c0.64-0.17,1.17-0.35,1.61-0.55l0.13-1.63h-7.89L24.64,2.5l1.82,0.4v1.31
		v11.62v1.2c-0.64,0.17-1.17,0.35-1.61,0.55l-0.13,1.63h7.89l0.13-1.67L30.91,17.14z"/>
	<path fill="#495E57" d="M55.38,0.83H39.65c-0.38,1.94-0.49,3.95-0.32,6.03h1.82l1.72-3.62h2.42v12.58v1.22
		c-0.23,0.05-0.47,0.08-0.7,0.14c-0.45,0.11-0.86,0.24-1.22,0.39l-0.13,1.63h8.48l0.13-1.67l-2.12-0.4v-1.31V3.25h2.42l1.72,3.62
		h1.82C55.87,4.79,55.77,2.78,55.38,0.83z"/>
	<path fill="#495E57" d="M77.92,0.83H62.19c-0.38,1.94-0.49,3.95-0.32,6.03h1.82l1.72-3.62h2.42v12.58v1.22
		c-0.23,0.05-0.47,0.08-0.7,0.14c-0.45,0.11-0.86,0.24-1.22,0.39l-0.13,1.63h8.48l0.13-1.67l-2.12-0.4v-1.31V3.25h2.42l1.72,3.62
		h1.82C78.41,4.79,78.3,2.78,77.92,0.83z"/>
	<path fill="#495E57" d="M98.14,12.62l-2.36,4.17h-4.71v-0.96V4.21v-1.2c0.36-0.06,0.71-0.13,1.04-0.2
		c0.53-0.12,0.97-0.23,1.32-0.34l0.13-1.63h-8.63L84.8,2.5l1.82,0.4v1.31v11.62v1.2c-0.64,0.17-1.17,0.35-1.61,0.55l-0.13,1.63h4.08
		h3.8h6.25c0.58-2.04,0.87-4.24,0.87-6.59H98.14z"/>
	<path fill="#495E57" d="M120.29,13.36l-1.97,3.43h-5.44v-0.96v-4.79h5.81l0.19-2.52h-5.99v-4.3V3.25h5.26l1.48,3.1h2.02
		c0.06-0.88,0.06-1.79-0.01-2.75c-0.07-0.95-0.2-1.87-0.4-2.76h-6.61h-4.92h-2.97l-0.13,1.67l1.82,0.4v1.31v11.62v1.2
		c-0.64,0.17-1.17,0.35-1.61,0.55l-0.13,1.63h4.1h3.79h6.87c0.3-1.03,0.52-2.05,0.66-3.06c0.14-1.01,0.2-1.94,0.18-2.78H120.29z"/>
</g>
<g>
	<path fill="#495E57" d="M15.7,211.88l-2.36,4.17H8.63v-0.96v-11.62v-1.2c0.36-0.06,0.71-0.13,1.04-0.2
		c0.53-0.12,0.97-0.23,1.32-0.34l0.13-1.63H2.49l-0.13,1.67l1.82,0.4v1.31v11.62v1.2c-0.64,0.17-1.17,0.35-1.61,0.55l-0.13,1.63
		h4.08h3.8h6.25c0.58-2.04,0.87-4.24,0.87-6.59H15.7z"/>
	<path fill="#495E57" d="M37.85,212.62l-1.97,3.43h-5.44v-0.96v-4.79h5.81l0.19-2.52h-5.99v-4.3v-0.96h5.26l1.48,3.1h2.02
		c0.06-0.88,0.06-1.79-0.01-2.75c-0.07-0.95-0.2-1.87-0.4-2.76h-6.61h-4.92h-2.97l-0.13,1.67l1.82,0.4v1.31v11.62v1.2
		c-0.64,0.17-1.17,0.35-1.61,0.55l-0.13,1.63h4.1h3.79H39c0.3-1.03,0.52-2.05,0.66-3.06c0.14-1.01,0.2-1.94,0.18-2.78H37.85z"/>
	<path fill="#495E57" d="M69.87,216.41l-0.94-14.15c0.63-0.15,1.2-0.32,1.69-0.52l0.13-1.63h-4.3H64.6h-1.26l-4.21,12.34l-4.4-12.34
		h-2.69h-1.87h-2.84l-0.13,1.67l1.92,0.4l-0.92,14.12c-0.6,0.17-1.1,0.35-1.51,0.55l-0.13,1.63h6.46l0.13-1.67l-2-0.39l0.65-11.87
		l4.79,13.01c0.54,0.04,1.12,0.05,1.72,0.03c0.6-0.02,1.18-0.05,1.73-0.1l4.8-13.02l0.64,11.85c-0.21,0.05-0.43,0.09-0.64,0.15
		c-0.44,0.12-0.83,0.25-1.16,0.39l-0.13,1.63h7.9l0.13-1.67L69.87,216.41z"/>
	<path fill="#495E57" d="M95.97,204.23c-0.77-1.42-1.86-2.51-3.27-3.29s-3.07-1.17-4.99-1.17c-1.92,0-3.58,0.39-4.99,1.17
		s-2.5,1.88-3.27,3.31c-0.77,1.43-1.15,3.11-1.15,5.06c0,1.93,0.38,3.61,1.15,5.03c0.77,1.42,1.86,2.52,3.27,3.3
		s3.07,1.17,4.97,1.17c1.93,0,3.6-0.39,5.01-1.17s2.5-1.88,3.27-3.31c0.77-1.43,1.15-3.11,1.15-5.06
		C97.12,207.32,96.74,205.65,95.97,204.23z M88.16,216.43c-1.53,0-2.72-0.68-3.55-2.04c-0.83-1.36-1.25-3.3-1.25-5.83
		c0-4.28,1.3-6.42,3.92-6.42c1.55,0,2.73,0.68,3.56,2.04c0.83,1.36,1.24,3.3,1.24,5.83C92.08,214.29,90.77,216.43,88.16,216.43z"/>
	<path fill="#495E57" d="M122.93,200.1h-6.29l-0.13,1.67l1.82,0.4v1.31v8.36l-9.61-11.74h-4.55l-0.13,1.67l1.86,0.66v12.67v1.2
		c-0.64,0.17-1.17,0.35-1.61,0.55l-0.13,1.63h6.66l0.13-1.67l-2.08-0.4v-1.31v-8.22l9.61,11.71c1.09,0.06,2.03,0.03,2.82-0.09
		v-15.01v-1.21c0.55-0.15,1.06-0.32,1.5-0.53L122.93,200.1z"/>
</g>
<g>
	<path fill="#FEFEFF" d="M55.19,66.49c-0.08,0-0.17,0.03-0.23,0c-0.56-0.29-1.08-0.25-1.64,0.06c-0.45,0.24-0.96,0.43-1.46,0.51
		c-0.68,0.11-1.21,0.43-1.74,0.82c-0.49,0.36-0.86,0.89-1.38,1.19c-1.19,0.69-1.25,2.13-2.1,3.04c-0.03,0.03,0.02,0.19,0,0.29
		c-0.12,0.65-0.15,1.32-0.1,1.97c0.05,0.65-0.1,1.28-0.19,1.9c-0.15,1.08-0.13,2.23-0.93,3.14c-0.16,0.18-0.27,0.4-0.31,0.64
		c-0.19,1.03-0.64,1.94-1.12,2.86c-0.31,0.58-0.52,1.21-0.73,1.84c-0.21,0.6-0.35,1.22-0.56,1.81c-0.4,1.09-0.86,2.15-1.71,3.01
		c-0.59,0.59-0.9,1.36-1.12,2.15c-0.29,1.04-0.32,2.21-1.01,3.06c-0.75,0.93-0.65,2.11-1.21,3.07c-0.01,0.02-0.02,0.05-0.04,0.07
		c-0.31,0.44-0.35,0.93-0.23,1.44c0.13,0.58,0.08,1.15,0.02,1.73c-0.16,1.74-0.69,3.48-0.09,5.24c0.06,0.17,0.09,0.35,0.14,0.52
		c0.13,0.43,0.31,0.92,0.12,1.32c-0.36,0.75-0.24,1.48-0.07,2.22c0.19,0.78,0.27,1.57,0.26,2.36c-0.02,0.81,0.08,1.57,0.48,2.29
		c0.22,0.39,0.26,0.86,0.37,1.29c0.22,0.87,0.28,1.76,0.57,2.63c0.39,1.16,0.77,2.32,1,3.52c0.2,1.07,0.46,2.11,1.2,2.97
		c0.25,0.29,0.38,0.69,0.54,1.05c0.23,0.51,0.55,0.97,0.89,1.4c0.96,1.23,2.19,2.28,2.54,3.91c0.01,0.04,0.06,0.08,0.09,0.12
		c0.89,1.23,1.67,2.55,2.96,3.45c0.27,0.19,0.48,0.5,0.64,0.79c0.29,0.54,0.69,0.98,1.15,1.37c0.53,0.44,1.02,0.95,1.39,1.5
		c0.76,1.12,1.77,1.94,2.84,2.71c0.85,0.62,1.73,1.22,2.38,2.04c0.99,1.24,2.28,2.03,3.72,2.62c1.44,0.59,2.9,1.16,4.37,1.67
		c0.73,0.25,1.45,0.61,2.24,0.66c0.98,0.07,1.78,0.52,2.56,1.07c0.33,0.23,0.74,0.42,1.14,0.49c1.14,0.19,1.98,0.82,2.7,1.65
		c0.32,0.36,0.62,0.72,1.08,0.9c0.84,0.32,1.5,0.87,2.06,1.56c0.18,0.22,0.41,0.45,0.71,0.46c1.14,0.04,2.28,0.08,3.41-0.1
		c0.14-0.02,0.28-0.06,0.33-0.19c0.31-0.78,0.61-1.56,0.9-2.34c0.06-0.17-0.07-0.35-0.13-0.53c-0.15-0.46-0.18-0.92-0.13-1.4
		c0.14-1.29,0.55-2.51,0.96-3.72c0.2-0.58,0.41-1.23,0.92-1.63c0.53-0.42,0.81-0.95,0.97-1.58c0.14-0.53,0.27-1.07,0.44-1.59
		c0.23-0.69,0.38-1.41,0.85-2.01c0.61-0.77,1.13-1.59,1.25-2.6c0.02-0.21,0.08-0.42,0.16-0.61c0.73-1.66,1.27-3.38,1.67-5.15
		c0.25-1.11,0.62-2.19,1.17-3.19c0.14-0.26,0.28-0.51,0.29-0.81c0.03-0.88,0.25-1.72,0.5-2.55c0.05-0.15,0.11-0.31,0.11-0.46
		c-0.01-1.04,0.24-2.04,0.38-3.06c0.12-0.82,0.15-1.66,0.63-2.39c0.17-0.25,0.14-0.53,0.03-0.83c-0.28-0.76-0.29-1.52,0.01-2.31
		c0.18-0.47,0.24-1.01,0.24-1.54c0.01-1.22-0.06-2.43-0.04-3.64c0.03-1.33,0-2.62-0.57-3.86c-0.22-0.48-0.26-1.02-0.13-1.55
		c0.12-0.55,0.16-1.08-0.17-1.6c-0.15-0.23-0.19-0.54-0.25-0.81c-0.29-1.26-0.71-2.49-1.24-3.66c-0.49-1.08-0.88-2.17-0.96-3.36
		c-0.02-0.24-0.15-0.44-0.28-0.65c-0.71-1.16-1.62-2.21-1.88-3.61c-0.04-0.21-0.22-0.42-0.38-0.59c-0.8-0.85-1.3-1.9-1.87-2.91
		c-0.25-0.45-0.53-0.87-0.94-1.14c-0.76-0.49-1.23-1.2-1.69-1.93c-0.32-0.51-0.6-1.08-1.14-1.41c-0.62-0.38-1.1-0.9-1.61-1.4
		c-0.76-0.74-1.49-1.5-2.38-2.08c-0.85-0.56-1.57-1.32-2.55-1.67c-0.46-0.17-0.83-0.43-1.14-0.79c-0.44-0.5-0.92-0.92-1.62-1.02
		c-0.17-0.03-0.33-0.15-0.48-0.25c-1.02-0.66-1.93-1.45-2.84-2.25c4.37-0.54,8.54-1.74,12.46-3.77c1.07-0.55,2.01-1.27,2.88-2.08
		c0.27-0.25,0.33-0.5,0.24-0.85c-0.16-0.56-0.39-1.06-0.8-1.51c-0.44-0.48-1.01-0.69-1.58-0.94c-0.9-0.38-1.81-0.71-2.77-0.89
		c-1.07-0.19-2.12-0.47-3.06-0.99c-1.17-0.64-2.43-0.88-3.71-1.08c-1.39-0.22-2.81-0.01-4.2-0.13c-1.86-0.16-3.61,0.38-5.38,0.77
		c-0.25,0.06-0.47,0.2-0.69,0.31c-1.07,0.5-2.02,1.22-3.19,1.52c-0.55,0.14-1.15,0.37-1.52,0.85C56.4,65.88,55.81,66.19,55.19,66.49
		z"/>
	<path fill="#F4CE14" d="M68.17,74.07c0.91,0.8,1.82,1.6,2.84,2.25c0.15,0.1,0.31,0.22,0.48,0.25c0.7,0.11,1.18,0.52,1.62,1.02
		c0.31,0.36,0.68,0.62,1.14,0.79c0.98,0.35,1.7,1.12,2.55,1.67c0.89,0.59,1.63,1.35,2.38,2.08c0.51,0.5,0.99,1.02,1.61,1.4
		c0.54,0.33,0.81,0.89,1.14,1.41c0.46,0.74,0.93,1.44,1.69,1.93c0.41,0.26,0.69,0.69,0.94,1.14c0.56,1,1.06,2.05,1.87,2.91
		c0.16,0.17,0.34,0.38,0.38,0.59c0.26,1.4,1.17,2.45,1.88,3.61c0.13,0.21,0.26,0.42,0.28,0.65c0.09,1.19,0.48,2.28,0.96,3.36
		c0.53,1.18,0.95,2.4,1.24,3.66c0.06,0.28,0.1,0.58,0.25,0.81c0.33,0.52,0.29,1.05,0.17,1.6c-0.12,0.54-0.08,1.08,0.13,1.55
		c0.56,1.24,0.6,2.53,0.57,3.86c-0.02,1.21,0.05,2.43,0.04,3.64c0,0.53-0.06,1.07-0.24,1.54c-0.3,0.79-0.29,1.55-0.01,2.31
		c0.11,0.3,0.13,0.58-0.03,0.83c-0.48,0.73-0.52,1.57-0.63,2.39c-0.14,1.02-0.39,2.02-0.38,3.06c0,0.15-0.07,0.31-0.11,0.46
		c-0.25,0.83-0.47,1.67-0.5,2.55c-0.01,0.29-0.15,0.55-0.29,0.81c-0.55,1-0.92,2.08-1.17,3.19c-0.39,1.77-0.94,3.49-1.67,5.15
		c-0.08,0.19-0.14,0.4-0.16,0.61c-0.11,1.01-0.63,1.83-1.25,2.6c-0.47,0.6-0.62,1.32-0.85,2.01c-0.17,0.52-0.3,1.06-0.44,1.59
		c-0.16,0.63-0.44,1.16-0.97,1.58c-0.51,0.4-0.72,1.05-0.92,1.63c-0.41,1.21-0.82,2.44-0.96,3.72c-0.05,0.48-0.02,0.95,0.13,1.4
		c0.06,0.18,0.19,0.35,0.13,0.53c-0.28,0.79-0.59,1.57-0.9,2.34c-0.05,0.13-0.19,0.17-0.33,0.19c-1.13,0.18-2.27,0.13-3.41,0.1
		c-0.3-0.01-0.53-0.24-0.71-0.46c-0.56-0.69-1.22-1.24-2.06-1.56c-0.46-0.18-0.77-0.53-1.08-0.9c-0.72-0.83-1.56-1.46-2.7-1.65
		c-0.4-0.07-0.81-0.25-1.14-0.49c-0.78-0.55-1.58-1-2.56-1.07c-0.79-0.05-1.51-0.41-2.24-0.66c-1.48-0.51-2.93-1.08-4.37-1.67
		c-1.43-0.59-2.73-1.38-3.72-2.62c-0.66-0.82-1.53-1.42-2.38-2.04c-1.07-0.77-2.08-1.6-2.84-2.71c-0.38-0.55-0.86-1.06-1.39-1.5
		c-0.46-0.39-0.86-0.83-1.15-1.37c-0.16-0.29-0.37-0.6-0.64-0.79c-1.29-0.9-2.08-2.22-2.96-3.45c-0.03-0.04-0.08-0.07-0.09-0.12
		c-0.35-1.63-1.58-2.68-2.54-3.91c-0.34-0.43-0.66-0.89-0.89-1.4c-0.16-0.36-0.29-0.76-0.54-1.05c-0.74-0.87-1.01-1.91-1.2-2.97
		c-0.22-1.21-0.61-2.37-1-3.52c-0.29-0.86-0.35-1.76-0.57-2.63c-0.11-0.44-0.15-0.9-0.37-1.29c-0.4-0.72-0.49-1.48-0.48-2.29
		c0.02-0.79-0.07-1.58-0.26-2.36c-0.18-0.74-0.3-1.47,0.07-2.22c0.19-0.4,0.01-0.89-0.12-1.32c-0.05-0.17-0.09-0.35-0.14-0.52
		c-0.6-1.76-0.06-3.5,0.09-5.24c0.05-0.58,0.11-1.15-0.02-1.73c-0.12-0.51-0.07-1,0.23-1.44c0.01-0.02,0.02-0.05,0.04-0.07
		c0.55-0.96,0.45-2.14,1.21-3.07c0.69-0.84,0.72-2.02,1.01-3.06c0.22-0.8,0.53-1.56,1.12-2.15c0.85-0.85,1.31-1.91,1.71-3.01
		c0.22-0.59,0.35-1.22,0.56-1.81c0.22-0.62,0.43-1.26,0.73-1.84c0.48-0.92,0.93-1.83,1.12-2.86c0.04-0.24,0.15-0.46,0.31-0.64
		c0.79-0.9,0.77-2.06,0.93-3.14c0.09-0.63,0.23-1.25,0.19-1.9c-0.05-0.65-0.02-1.32,0.1-1.97c0.02-0.11-0.03-0.26,0-0.29
		c0.85-0.91,0.91-2.35,2.1-3.04c0.52-0.3,0.88-0.82,1.38-1.19c0.53-0.39,1.06-0.71,1.74-0.82c0.5-0.08,1.01-0.27,1.46-0.51
		c0.56-0.3,1.08-0.35,1.64-0.06c0.06,0.03,0.16,0,0.23,0c0.21,0.35,0.55,0.37,0.83,0.18c0.7-0.49,1.52-0.59,2.32-0.77
		c1.06-0.24,2.12-0.44,3.21-0.3c0.42,0.05,0.85,0.03,1.26-0.09c0.57-0.16,1.15-0.16,1.73-0.2c1.06-0.06,2.12,0.22,3.17,0.17
		c1.74-0.08,3.41,0.45,5.13,0.44c0.26,0,0.52,0.08,0.78,0.15c0.41,0.1,0.83,0.2,1.25,0.18c0.37-0.01,0.7,0.12,1.02,0.28
		c-0.05,0.14-0.16,0.15-0.27,0.15c-1.38,0.06-2.76,0.08-4.13,0.01c-0.58-0.03-1.16-0.07-1.75-0.02c-1.79,0.17-3.6,0.18-5.39,0.23
		c-1.75,0.05-3.5,0.02-5.24,0.04c-0.66,0.01-1.32,0.08-1.98,0.13c-0.16,0.01-0.35-0.01-0.41,0.17c-0.06,0.17,0.1,0.29,0.2,0.4
		c0.47,0.5,0.92,1.02,1.47,1.44c0.57,0.43,1.11,0.91,1.52,1.5c0.24,0.33,0.55,0.57,0.93,0.72c0.61,0.25,1.22,0.53,1.88,0.63
		c0.4,0.06,0.76,0.22,1.1,0.43C65.17,73.18,66.68,73.6,68.17,74.07z M68.63,88.85c-0.01-0.15,0-0.28-0.03-0.41
		c-0.24-1.05-0.42-2.11-0.46-3.19c-0.01-0.23-0.03-0.5-0.15-0.69c-0.44-0.73-0.4-1.54-0.43-2.33c-0.02-0.38-0.08-0.72-0.27-1.06
		c-0.45-0.78-0.85-1.58-1.19-2.41c-0.13-0.32-0.33-0.61-0.58-0.85c-1.4-1.33-2.75-2.7-4-4.16c-0.09-0.1-0.18-0.2-0.29-0.27
		c-1.15-0.69-2.11-1.59-2.92-2.65c-0.13-0.17-0.3-0.29-0.46-0.44c-0.55-0.5-1.11-0.98-1.63-1.51c-0.4-0.41-0.85-0.7-1.37-0.92
		c-0.71-0.29-1.66-0.09-2.14,0.52c-0.39,0.5-0.77,1.01-1,1.61c-0.2,0.52-0.48,1-0.8,1.45c-0.56,0.78-0.93,1.66-1.17,2.58
		c-0.23,0.89-0.45,1.79-0.61,2.7c-0.19,1.06-0.54,2.09-0.39,3.2c0.17,1.26,0.53,2.48,0.71,3.73c0.02,0.15,0.09,0.31,0.18,0.44
		c0.75,1.21,1.46,2.45,2.39,3.54c0.71,0.84,1.52,1.54,2.54,1.97c0.39,0.16,0.78,0.34,1.12,0.59c0.91,0.65,1.92,1.1,2.95,1.54
		c1.53,0.66,3.1,1.24,4.43,2.28c0.12,0.09,0.28,0.16,0.43,0.2c0.93,0.23,1.78,0.64,2.6,1.15c0.58,0.36,1.23,0.62,1.94,0.63
		c0.9,0,1.3-0.68,0.91-1.5c-0.13-0.27-0.28-0.58-0.27-0.87C68.71,92.1,68.26,90.47,68.63,88.85z"/>
	<path fill="#495F57" d="M68.17,74.07c-1.49-0.47-2.99-0.89-4.35-1.69c-0.34-0.2-0.7-0.36-1.1-0.43c-0.66-0.1-1.27-0.38-1.88-0.63
		c-0.37-0.15-0.69-0.39-0.93-0.72c-0.42-0.59-0.95-1.06-1.52-1.5c-0.55-0.42-1-0.94-1.47-1.44c-0.11-0.11-0.26-0.23-0.2-0.4
		c0.06-0.18,0.25-0.16,0.41-0.17c0.66-0.05,1.32-0.12,1.98-0.13c1.75-0.03,3.5,0,5.24-0.04c1.8-0.05,3.6-0.06,5.39-0.23
		c0.58-0.05,1.16-0.01,1.75,0.02c1.38,0.07,2.75,0.04,4.13-0.01c0.1,0,0.21-0.01,0.27-0.15c-0.32-0.15-0.64-0.29-1.02-0.28
		c-0.43,0.01-0.84-0.08-1.25-0.18c-0.26-0.06-0.52-0.15-0.78-0.15c-1.72,0.01-3.39-0.52-5.13-0.44c-1.05,0.05-2.1-0.23-3.17-0.17
		c-0.58,0.03-1.16,0.03-1.73,0.2c-0.41,0.12-0.84,0.15-1.26,0.09c-1.1-0.14-2.16,0.05-3.21,0.3c-0.8,0.18-1.61,0.28-2.32,0.77
		c-0.27,0.19-0.61,0.17-0.83-0.18c0.62-0.3,1.21-0.61,1.65-1.18c0.37-0.48,0.97-0.71,1.52-0.85c1.17-0.31,2.12-1.03,3.19-1.52
		c0.23-0.11,0.44-0.25,0.69-0.31c1.77-0.39,3.51-0.93,5.38-0.77c1.39,0.12,2.81-0.09,4.2,0.13c1.28,0.2,2.54,0.44,3.71,1.08
		c0.94,0.52,1.99,0.8,3.06,0.99c0.95,0.17,1.87,0.5,2.77,0.89c0.58,0.24,1.14,0.45,1.58,0.94c0.41,0.44,0.64,0.95,0.8,1.51
		c0.1,0.34,0.04,0.6-0.24,0.85c-0.88,0.81-1.81,1.53-2.88,2.08C76.7,72.33,72.54,73.53,68.17,74.07z"/>
	<path fill="#495F57" d="M68.63,88.85c-0.37,1.62,0.08,3.25,0.05,4.88c-0.01,0.29,0.14,0.6,0.27,0.87c0.38,0.82-0.02,1.51-0.91,1.5
		c-0.71,0-1.36-0.26-1.94-0.63c-0.82-0.51-1.67-0.92-2.6-1.15c-0.15-0.04-0.31-0.11-0.43-0.2c-1.33-1.04-2.91-1.62-4.43-2.28
		c-1.02-0.44-2.03-0.89-2.95-1.54c-0.34-0.24-0.73-0.42-1.12-0.59c-1.03-0.43-1.84-1.13-2.54-1.97c-0.93-1.09-1.63-2.34-2.39-3.54
		c-0.08-0.13-0.15-0.29-0.18-0.44c-0.18-1.25-0.54-2.47-0.71-3.73c-0.15-1.11,0.2-2.15,0.39-3.2c0.16-0.91,0.38-1.81,0.61-2.7
		c0.24-0.92,0.62-1.8,1.17-2.58c0.32-0.45,0.61-0.93,0.8-1.45c0.23-0.6,0.61-1.11,1-1.61c0.47-0.6,1.43-0.8,2.14-0.52
		c0.52,0.21,0.97,0.51,1.37,0.92c0.52,0.53,1.09,1.01,1.63,1.51c0.16,0.14,0.33,0.27,0.46,0.44c0.81,1.06,1.76,1.96,2.92,2.65
		c0.11,0.07,0.2,0.17,0.29,0.27c1.25,1.47,2.6,2.84,4,4.16c0.25,0.23,0.45,0.52,0.58,0.85c0.34,0.83,0.74,1.64,1.19,2.41
		c0.19,0.33,0.25,0.68,0.27,1.06c0.03,0.79-0.01,1.6,0.43,2.33c0.12,0.19,0.14,0.46,0.15,0.69c0.04,1.08,0.22,2.14,0.46,3.19
		C68.63,88.57,68.62,88.71,68.63,88.85z M65.02,90.55c-0.14-0.59-0.39-0.91-0.57-1.25c-0.58-1.06-1.36-2.03-1.77-3.18
		c-0.32-0.91-0.81-1.71-1.29-2.53c-0.94-1.59-1.87-3.18-2.64-4.87c-0.44-0.96-1.02-1.84-1.65-2.69c-0.36-0.47-0.7-0.96-0.9-1.54
		c-0.34-0.98-0.98-1.76-1.9-2.49c0.17,1.13,0.43,2.09,0.8,3.02c0.63,1.57,1.36,3.09,2.08,4.61c0.85,1.77,1.61,3.59,2.75,5.22
		c0.17,0.24,0.32,0.48,0.47,0.72c0.35,0.55,0.6,1.18,1.08,1.63c0.4,0.38,0.77,0.8,1.1,1.24C63.21,89.27,64.06,89.84,65.02,90.55z"/>
	<path fill="#F4CD13" d="M65.02,90.55c-0.96-0.72-1.81-1.28-2.45-2.11c-0.34-0.43-0.7-0.85-1.1-1.24c-0.48-0.46-0.73-1.08-1.08-1.63
		c-0.15-0.24-0.3-0.49-0.47-0.72c-1.14-1.62-1.9-3.44-2.75-5.22c-0.73-1.52-1.45-3.05-2.08-4.61c-0.37-0.93-0.63-1.89-0.8-3.02
		c0.93,0.73,1.56,1.51,1.9,2.49c0.2,0.58,0.55,1.07,0.9,1.54c0.64,0.85,1.22,1.74,1.65,2.69c0.77,1.68,1.71,3.28,2.64,4.87
		c0.48,0.82,0.97,1.62,1.29,2.53c0.4,1.15,1.18,2.12,1.77,3.18C64.63,89.65,64.88,89.96,65.02,90.55z"/>
</g>
<path fill="#495E57" d="M124.16,94.92c-0.09-0.16-0.23-0.3-0.38-0.39c0.2-0.29,0.31-0.63,0.21-1.02c0.06-0.1,0.11-0.21,0.15-0.33
	c0.09-0.3,0.07-0.62-0.05-0.91c0.18-0.35,0.22-0.76-0.04-1.22c-0.11-0.19-0.26-0.34-0.45-0.43c-0.01-0.04-0.02-0.09-0.04-0.13
	c0.56-0.51,0.92-1.16,0.46-1.97c-0.13-0.23-0.33-0.41-0.57-0.5c0.46-0.44,0.82-1.05,0.39-1.79c-0.11-0.19-0.26-0.34-0.45-0.44
	c0.47-0.43,0.83-0.98,0.59-1.65c0.1-0.14,0.18-0.3,0.23-0.48c0.1-0.35,0.05-0.72-0.14-1.04c-0.03-0.06-0.07-0.11-0.11-0.16
	c0.01-0.18-0.03-0.37-0.12-0.58c0.25-0.39,0.32-0.85,0.02-1.38c0.15-0.33,0.17-0.72-0.08-1.15c-0.07-0.12-0.16-0.21-0.26-0.3
	c0.18-0.7,0.14-0.8-0.01-1.06c-0.01-0.01-0.02-0.02-0.02-0.03c0.05-0.2,0.06-0.41-0.01-0.64c0.6-0.5,1.17-1.21,0.66-2.1
	c-0.08-0.14-0.19-0.26-0.33-0.35c-0.02-0.12-0.06-0.19-0.12-0.3c-0.08-0.14-0.18-0.24-0.27-0.31c0.04-0.2,0.08-0.41,0.13-0.62
	c0.08-0.4,0.15-0.73,0.21-1.02c0.17-0.19,0.31-0.4,0.38-0.65c0.1-0.35,0.05-0.72-0.14-1.04c-0.02-0.04-0.06-0.06-0.08-0.09
	c-0.01-0.03-0.03-0.06-0.05-0.09c-0.1-0.17-0.24-0.3-0.42-0.39c0.22-2,0.22-2.01,0.04-2.33c-0.07-0.11-0.14-0.2-0.22-0.27
	c0.16-0.37,0.32-0.73,0.46-1.03c0.01-0.01,0.01-0.02,0.02-0.04c0.15-0.19,0.25-0.41,0.29-0.65c0.52-1.2,0.5-1.26,0.27-1.65
	c-0.06-0.11-0.14-0.2-0.24-0.27c0.24-0.4,0.32-0.87,0-1.41c-0.04-0.07-0.08-0.13-0.13-0.18c0.04-0.26,0-0.54-0.17-0.85
	c0,0,0,0,0-0.01c0.05-0.22,0.03-0.45-0.08-0.71c0.23-0.35,0.32-0.76,0.11-1.24c0.27-0.39,0.4-0.86,0.12-1.4
	c0.51-1.25,0.47-1.33,0.27-1.68c-0.01-0.01-0.02-0.02-0.03-0.03c-0.03-0.15-0.07-0.29-0.14-0.42c-0.09-0.16-0.22-0.28-0.37-0.37
	c0.35-2.22,0.35-2.24,0.17-2.56c-0.13-0.22-0.33-0.37-0.56-0.45c-0.01-0.01-0.01-0.02-0.01-0.03c-0.01-0.02-0.02-0.03-0.03-0.04
	c0.06-0.17,0.08-0.35,0.06-0.54c0.23-0.73,0.37-1.21,0.46-1.54c0.26-0.23,0.47-0.49,0.56-0.82c0.1-0.35,0.05-0.72-0.14-1.03
	c-0.06-0.11-0.14-0.2-0.23-0.28c0.03-0.26-0.03-0.54-0.2-0.84c0.04-0.21,0.02-0.42-0.04-0.62c0.22-0.3,0.33-0.66,0.22-1.07
	c0.12-0.15,0.21-0.33,0.27-0.52c0.1-0.35,0.05-0.73-0.13-1.05c0-0.01-0.01-0.02-0.02-0.03c0.18-0.37,0.21-0.8-0.06-1.28
	c-0.17-0.29-0.46-0.49-0.79-0.55c-0.03,0-0.06-0.01-0.09-0.01c-0.01-0.02-0.02-0.04-0.03-0.06c0.11-0.26,0.17-0.58,0.07-0.92
	c0.31-0.37,0.51-0.83,0.31-1.37c0.06-0.1,0.1-0.21,0.13-0.32c0.05-0.2,0.06-0.41,0.02-0.61c0.22-0.21,0.4-0.46,0.48-0.76
	c0.09-0.34,0.04-0.71-0.14-1.02c-0.19-0.32-0.5-0.54-0.86-0.59c-0.59-0.08-1.1,0.24-1.68,0.73c-0.21-0.31-0.53-0.51-0.89-0.55
	c-0.37-0.05-0.71,0.07-1.03,0.29c-0.27-0.33-0.58-0.38-0.94-0.27c-0.12-0.05-0.24-0.09-0.38-0.1c-0.29-0.02-0.54,0.05-0.77,0.19
	c-0.22-0.27-0.52-0.43-0.85-0.46c-0.26-0.02-0.5,0.03-0.71,0.14c-0.2-0.23-0.48-0.37-0.78-0.41c-0.8-0.1-1.4,0.54-2.09,1.28
	c-0.02,0.02-0.05,0.05-0.08,0.08c-0.02-0.04-0.04-0.09-0.07-0.13c-0.2-0.35-0.54-0.58-0.93-0.63c-0.38-0.05-0.71,0.07-1.04,0.28
	c-0.21-0.31-0.53-0.52-0.9-0.56c-0.4-0.04-0.75,0.09-1.08,0.33c-0.2-0.22-0.46-0.36-0.75-0.4c-0.39-0.05-0.74,0.07-1.1,0.3
	c-0.19-0.19-0.44-0.32-0.71-0.36c-0.67-0.09-1.25,0.33-1.91,0.95c0-0.01-0.01-0.02-0.01-0.02c-0.21-0.36-0.55-0.59-0.95-0.64
	c-0.21-0.03-0.41,0-0.6,0.07c-0.19-0.17-0.42-0.27-0.67-0.3c-0.3-0.04-0.57,0.03-0.84,0.17c-0.19-0.18-0.42-0.29-0.68-0.33
	c-0.79-0.1-1.43,0.5-2.22,1.28c-0.02-0.04-0.04-0.08-0.06-0.11c-0.22-0.38-0.58-0.62-0.99-0.65c-0.04,0-0.07-0.01-0.11,0
	c-0.21-0.26-0.5-0.42-0.83-0.46c-0.38-0.04-0.71,0.08-1.02,0.29c-0.19-0.2-0.43-0.33-0.7-0.37c-0.55-0.09-1.06,0.18-1.65,0.64
	c-0.19-0.2-0.44-0.33-0.72-0.37c-0.36-0.05-0.7,0.05-1.04,0.25c-0.21-0.26-0.5-0.43-0.83-0.46c-0.37-0.04-0.7,0.07-1.01,0.28
	c-0.18-0.15-0.39-0.25-0.63-0.29c-0.61-0.09-1.17,0.26-1.79,0.8c-0.2-0.33-0.53-0.55-0.9-0.6c-0.52-0.07-0.99,0.18-1.47,0.59
	c-0.21-0.21-0.48-0.33-0.77-0.35c-0.28-0.02-0.52,0.05-0.73,0.18c-0.2-0.2-0.46-0.33-0.74-0.36c-0.12-0.01-0.24-0.01-0.35,0.01
	c-0.2-0.2-0.45-0.33-0.73-0.36c-0.61-0.07-1.12,0.28-1.65,0.78c-0.2-0.24-0.48-0.39-0.79-0.43c-0.49-0.06-0.94,0.16-1.38,0.52
	c-0.2-0.27-0.49-0.44-0.82-0.48c-0.33-0.04-0.63,0.04-0.94,0.2c-0.2-0.3-0.52-0.5-0.88-0.55c-0.76-0.1-1.4,0.49-2.11,1.2
	c-0.01-0.03-0.03-0.05-0.04-0.08c-0.21-0.37-0.57-0.61-0.97-0.65c-0.15-0.01-0.29,0-0.43,0.03c-0.19-0.21-0.45-0.34-0.73-0.38
	c-0.55-0.08-1.03,0.2-1.54,0.64c-0.2-0.28-0.5-0.46-0.83-0.5c-0.39-0.06-0.75,0.08-1.11,0.31c-0.18-0.02-0.38,0.05-0.92,0.35
	c-0.21-0.22-0.47-0.35-0.77-0.38c-0.37-0.03-0.68,0.08-0.98,0.29c-0.21-0.18-0.47-0.29-0.74-0.3c-0.49-0.01-0.85,0.25-1.14,0.58
	c-0.13-0.05-0.26-0.1-0.38-0.15c-0.21-0.22-0.49-0.35-0.78-0.37c-0.04,0-0.08,0-0.13,0c-0.07-0.03-0.13-0.05-0.18-0.07
	c-0.19-0.19-0.43-0.33-0.7-0.37c-0.68-0.1-1.28,0.35-1.98,0.99c-0.01-0.02-0.02-0.04-0.03-0.05c-0.19-0.34-0.52-0.56-0.89-0.62
	c-0.2-0.27-0.49-0.44-0.82-0.49c-0.42-0.06-0.81,0.1-1.21,0.38c-0.08-0.04-0.16-0.07-0.21-0.1c-0.39-0.37-0.88-0.2-1.44,0.1
	c-0.06-0.02-0.12-0.04-0.19-0.04c-0.49-0.05-0.91,0.19-1.3,0.53c-0.15-0.03-0.33-0.06-0.52-0.09c-0.16-0.09-0.34-0.16-0.53-0.17
	c-0.12-0.01-0.22,0.01-0.32,0.03c-0.04-0.01-0.06-0.01-0.1-0.02c-0.82-0.13-1.94-0.32-2.21-0.38c-0.02-0.01-0.04-0.01-0.06-0.02
	c-0.38-0.1-0.56-0.02-1.16,0.33c-0.21-0.28-0.51-0.46-0.86-0.5c-0.45-0.05-0.84,0.13-1.21,0.43c-0.15-0.05-0.3-0.09-0.47-0.15
	c-0.66-0.2-1.24-0.38-1.39-0.43c-0.04-0.01-0.07-0.03-0.11-0.04c-0.42-0.11-0.63,0.01-1.24,0.39c-0.05,0.03-0.1,0.06-0.15,0.09
	c-0.12-0.02-0.25-0.05-0.4-0.07c-0.16-0.11-0.33-0.2-0.52-0.22c-0.19-0.03-0.37,0-0.55,0.05c-0.19-0.03-0.38-0.06-0.6-0.1
	c-1.02-0.16-2.4-0.39-2.7-0.45c-0.02-0.01-0.04-0.01-0.06-0.02c-0.42-0.11-0.47-0.08-1.68,0.64c-0.05,0.03-0.1,0.06-0.15,0.09
	c-0.13-0.06-0.27-0.11-0.41-0.13c-0.15-0.02-0.29,0-0.42,0.03c-0.2-0.07-0.43-0.14-0.69-0.23c-0.59-0.2-1.14-0.38-1.3-0.44
	c-0.05-0.02-0.1-0.04-0.15-0.05c-0.41-0.11-0.57-0.02-1.31,0.42c-0.19,0.11-0.39,0.23-0.55,0.33c-0.43-0.11-1.08-0.26-2.06-0.48
	c-0.96-0.22-1.9-0.43-2.11-0.49c-0.02-0.01-0.04-0.01-0.06-0.02c-0.41-0.11-0.41-0.11-1.63,0.61c-0.19,0.11-0.37,0.22-0.53,0.31
	c-0.41-0.11-1.01-0.27-1.92-0.49c-0.81-0.2-1.58-0.4-1.8-0.46c-0.03-0.01-0.07-0.02-0.1-0.03c-0.41-0.11-0.43-0.09-1.59,0.58
	c-0.2,0.12-0.4,0.24-0.56,0.33c-0.4-0.07-0.97-0.15-1.83-0.26c-0.88-0.12-2.07-0.28-2.34-0.33c0,0-0.01,0-0.01,0
	c-0.42-0.12-0.42-0.11-2.21,0.94c-0.12,0.07-0.24,0.14-0.36,0.21c-0.2-0.23-0.46-0.39-0.76-0.43c-0.26-0.04-0.5,0.01-0.74,0.11
	c-0.18-0.14-0.39-0.23-0.62-0.26c-0.74-0.1-1.34,0.46-2.01,1.14c-0.06,0-0.13,0-0.2-0.01c0,0,0,0,0-0.01
	c-0.2-0.35-0.54-0.58-0.93-0.63c-0.51-0.06-0.95,0.17-1.4,0.55c-0.02,0-0.03,0-0.04,0c-0.41-0.6-1.01-0.48-1.13-0.45
	c-0.13,0.04-0.46,0.16-0.64,0.54c-0.09,0.12-0.14,0.27-0.17,0.42c-0.12,0.07-0.22,0.13-0.27,0.15L2.6,38.5
	c-0.36,0.41-0.9,1.14-0.44,1.95c0.2,0.35,0.54,0.58,0.92,0.63c0.81,0.1,1.46-0.56,2.21-1.32c0.02,0.05,0.05,0.1,0.08,0.15
	c0.2,0.35,0.54,0.58,0.93,0.63c0.09,0.01,0.18,0.01,0.27,0.01c0.19,0.18,0.43,0.3,0.69,0.34c0.6,0.08,1.13-0.25,1.71-0.77
	c0.23,0.33,0.57,0.53,0.94,0.56c0.28,0.02,0.52-0.05,0.74-0.18c0.2,0.19,0.46,0.31,0.73,0.33c0.46,0.04,0.83-0.16,1.18-0.46
	c0.2,0.23,0.48,0.38,0.78,0.42c0.37,0.05,0.71-0.07,1.04-0.28c0.2,0.27,0.5,0.46,0.83,0.5c0.72,0.1,1.34-0.4,2.08-1.1
	c0.22,0.33,0.55,0.54,0.93,0.58c0.26,0.02,0.5-0.03,0.72-0.13c0.2,0.29,0.51,0.48,0.85,0.52c0.41,0.05,0.78-0.09,1.15-0.35
	c0.2,0.21,0.45,0.35,0.74,0.39C22.4,41,23,40.54,23.68,39.89c0.21,0.35,0.55,0.57,0.93,0.62c0.33,0.04,0.62-0.04,0.9-0.21
	c0.18,0.15,0.4,0.25,0.64,0.27c0,0,0.01,0,0.01,0c0.21,0.29,0.51,0.48,0.86,0.52c0.81,0.11,1.47-0.56,2.23-1.34
	c0,0,0.01-0.01,0.01-0.01c0.03,0.07,0.06,0.13,0.09,0.2c0.21,0.37,0.56,0.6,0.96,0.64c0.49,0.05,0.9-0.18,1.28-0.52
	c0.21,0.23,0.49,0.38,0.79,0.41c0.35,0.04,0.67-0.07,0.96-0.27c0.22,0.26,0.52,0.42,0.85,0.45c0.22,0.02,0.41-0.02,0.59-0.09
	c0.2,0.21,0.46,0.35,0.75,0.38c0.43,0.05,0.81-0.11,1.17-0.39c0.19,0.19,0.43,0.32,0.7,0.36c0.61,0.09,1.17-0.26,1.79-0.8
	c0.22,0.27,0.52,0.44,0.85,0.47c0.21,0.02,0.4-0.01,0.58-0.08c0.2,0.19,0.45,0.32,0.73,0.35c0.61,0.07,1.09-0.28,1.59-0.78
	c0.21,0.25,0.5,0.42,0.82,0.45c0.2,0.02,0.38,0,0.56-0.06c0.21,0.27,0.51,0.43,0.84,0.47c0.44,0.05,0.82-0.13,1.18-0.42
	c0.2,0.21,0.47,0.34,0.75,0.37c0.62,0.07,1.11-0.32,1.58-0.81c0.23,0.31,0.56,0.49,0.92,0.51c0.3,0.02,0.54-0.07,0.76-0.21
	c0.19,0.18,0.43,0.29,0.69,0.31c0.48,0.05,0.88-0.17,1.26-0.5c0.2,0.32,0.52,0.52,0.88,0.58c0.16,0.02,0.32,0.02,0.48-0.02
	c0.19,0.18,0.42,0.29,0.68,0.32c0.58,0.08,1.06-0.23,1.57-0.69c0.2,0.33,0.52,0.55,0.9,0.61c0.61,0.09,1.16-0.27,1.78-0.8
	c0.23,0.29,0.54,0.46,0.89,0.49c0.68,0.04,1.16-0.46,1.57-0.98c0.02,0.04,0.04,0.07,0.06,0.1c0.24,0.41,0.62,0.65,1.04,0.67
	c0.01,0,0.02,0,0.03,0c0.21,0.23,0.48,0.37,0.79,0.4c0.39,0.04,0.72-0.1,1.03-0.32c0.2,0.26,0.49,0.43,0.81,0.47
	c0.58,0.08,1.09-0.23,1.65-0.72c0.2,0.29,0.51,0.47,0.85,0.52c0.44,0.06,0.84-0.11,1.25-0.41c0.11,0.07,0.2,0.14,0.24,0.17
	c0.11,0.09,0.23,0.15,0.36,0.19c0.22,0.06,0.34,0.08,0.65-0.06c0.28-0.06,0.53-0.21,0.76-0.41c0.1-0.06,0.21-0.12,0.33-0.19
	c0.2,0.28,0.5,0.46,0.84,0.51c0.28,0.04,0.53-0.02,0.78-0.14c0.2,0.3,0.51,0.5,0.87,0.55c0.24,0.03,0.46-0.01,0.68-0.09
	c0.23,0.14,0.4,0.24,0.46,0.28c0.09,0.06,0.19,0.11,0.3,0.14c0.35,0.1,0.42,0.11,1.4-0.46c0.31-0.08,0.61-0.28,0.92-0.53
	c0.16-0.1,0.32-0.18,0.45-0.26c0.2,0.21,0.45,0.36,0.74,0.39c0.23,0.03,0.44,0,0.64-0.08c0.19,0.18,0.43,0.29,0.7,0.32
	c0.2,0.02,0.39-0.01,0.57-0.08c0.83,0.2,1.56,0.37,1.74,0.42c0.02,0.01,0.04,0.01,0.06,0.02c0.33,0.09,0.54,0.02,0.9-0.18
	c0.29,0.02,0.57-0.05,0.84-0.2c0.54,0.09,1.3,0.2,2.41,0.36c0.94,0.14,1.78,0.26,2,0.3c0.38,0.1,0.51,0.05,1.31-0.42
	c0.16-0.06,0.31-0.13,0.47-0.23c0.18,0.17,0.41,0.29,0.66,0.33c0.34,0.05,0.67-0.04,1.01-0.22c0.41,0.04,0.88,0.08,1.44,0.13
	c0.96,0.08,1.81,0.15,2.05,0.18c0.37,0.09,0.44,0.06,1.59-0.62c0.02-0.01,0.05-0.03,0.07-0.04c0.16,0.12,0.34,0.2,0.54,0.23
	c0.41,0.05,0.78-0.08,1.15-0.34c0.19,0.18,0.43,0.3,0.7,0.33c0.3,0.04,0.58-0.03,0.85-0.17c0.19,0.16,0.42,0.27,0.67,0.3
	c0.24,0.03,0.45-0.01,0.66-0.09c0.38,0.06,0.68,0.11,0.79,0.13c0.01,0,0.01,0,0.02,0.01c0.22,0.06,0.38,0.06,0.6-0.03
	c0.03,0.01,0.05,0.03,0.08,0.03c0.41,0.06,0.78-0.08,1.16-0.33c0.19,0.2,0.44,0.33,0.72,0.37c0.43,0.06,0.81-0.09,1.2-0.36
	c0.87,0.09,2,0.21,2.37,0.26c0.17,0.14,0.38,0.23,0.6,0.26c0.71,0.09,1.28-0.4,1.9-1.03c0.23,0.01,0.49,0.03,0.8,0.04
	c0.19,0.16,0.41,0.27,0.66,0.3c0.34,0.04,0.66-0.06,0.95-0.24c0.16,0.01,0.33,0.01,0.5,0.02c0.18,0.13,0.38,0.23,0.6,0.25
	c0.31,0.02,0.57-0.06,0.82-0.21c0.12,0,0.23,0.01,0.34,0.01c0.21,0.19,0.45,0.33,0.73,0.35c0.2,0.01,0.38-0.02,0.54-0.08
	c0.21,0.31,0.53,0.52,0.89,0.56c0.51,0.07,0.95-0.18,1.39-0.56c0.08,0.1,0.17,0.18,0.27,0.25c0.07,0.11,0.13,0.2,0.18,0.27
	c-0.01,0.02-0.02,0.04-0.02,0.07c-0.09,0.34-0.04,0.7,0.14,1.02c0.04,0.06,0.08,0.12,0.13,0.18c-0.03,0.25,0.02,0.52,0.18,0.81
	c0.09,0.16,0.22,0.3,0.37,0.4c-0.58,0.49-1.2,1.21-0.68,2.12c0.05,0.09,0.11,0.17,0.19,0.24c-0.04,0.22-0.01,0.47,0.1,0.72
	c-0.03,0.06-0.05,0.12-0.07,0.19c-0.09,0.32-0.06,0.66,0.09,0.97c-0.09,0.23-0.11,0.48-0.02,0.76c-0.09,0.13-0.15,0.27-0.2,0.42
	c-0.08,0.29-0.06,0.6,0.07,0.88c-0.35,0.45-0.51,0.99-0.15,1.62c0.1,0.17,0.23,0.3,0.39,0.4c0.03,0.13,0.08,0.25,0.15,0.37
	c0.09,0.15,0.2,0.28,0.34,0.38c0,0.03,0.01,0.05,0.01,0.08c-0.6,0.46-1.37,1.22-0.81,2.19c0.13,0.23,0.32,0.4,0.55,0.49
	c-0.6,0.49-1.15,1.19-0.64,2.08c0.04,0.07,0.09,0.14,0.14,0.19c-0.06,0.24-0.05,0.49,0.06,0.77c-0.02,0.05-0.04,0.11-0.06,0.17
	c-0.08,0.26-0.07,0.54,0.02,0.8c-0.23,0.37-0.32,0.81-0.02,1.32c0.13,0.23,0.34,0.4,0.58,0.5c-0.43,0.44-0.7,1.02-0.29,1.72
	c0.09,0.15,0.2,0.28,0.34,0.37c0.03,0.1,0.08,0.21,0.14,0.33c0.01,0.02,0.02,0.03,0.03,0.05c-0.08,0.23-0.1,0.47-0.02,0.74
	c-0.6,0.5-1.06,1.17-0.6,2.01c-0.13,0.32-0.14,0.69,0.09,1.1c0.1,0.18,0.24,0.32,0.41,0.42c-0.36,0.41-0.64,0.95-0.35,1.58
	c-0.31,0.42-0.47,0.95-0.13,1.54c0.11,0.18,0.25,0.33,0.42,0.43c-0.56,0.42-1.18,1.08-0.67,1.97c0.03,0.05,0.06,0.09,0.09,0.13
	c-0.02,0.2,0,0.4,0.06,0.58c-0.36,0.43-0.56,0.97-0.19,1.61c0.09,0.15,0.2,0.28,0.34,0.37c-0.42,0.42-0.71,0.99-0.31,1.69
	c0.16,0.27,0.42,0.47,0.73,0.54c0.02,0.06,0.04,0.11,0.07,0.17c-0.29,0.37-0.49,0.82-0.33,1.33c-0.47,0.46-0.86,1.09-0.42,1.85
	c0.12,0.2,0.28,0.36,0.48,0.45c-0.52,0.47-0.85,1.09-0.41,1.87c0.03,0.05,0.06,0.09,0.09,0.13c-0.02,0.19,0.02,0.4,0.12,0.62
	c-0.03,0.07-0.06,0.15-0.09,0.23c-0.08,0.3-0.06,0.62,0.07,0.91c-0.25,0.35-0.38,0.76-0.22,1.23c-0.32,0.4-0.48,0.9-0.13,1.5
	c0.15,0.26,0.41,0.43,0.69,0.51c-0.01,0.19,0.04,0.29,0.13,0.44c0.01,0.02,0.03,0.03,0.04,0.05c-0.02,0.15-0.02,0.3,0.01,0.46
	c-0.76,0.53-1.49,1.3-0.96,2.29c-0.17,0.35-0.19,0.76,0.07,1.22c0.08,0.13,0.18,0.25,0.29,0.33c-0.11,0.15-0.2,0.31-0.26,0.49
	c-0.11,0.36-0.06,0.74,0.13,1.07c0.06,0.11,0.14,0.21,0.23,0.29c-0.2,0.2-0.35,0.42-0.43,0.7c-0.09,0.34-0.04,0.69,0.13,1
	c0.12,0.21,0.3,0.37,0.51,0.46c-0.26,0.35-0.41,0.77-0.24,1.26c-0.34,1.06-0.29,1.16-0.12,1.45c0.04,0.07,0.09,0.14,0.15,0.2
	c-0.88,2.65-0.87,2.66-0.64,3.07c0.09,0.15,0.22,0.26,0.37,0.35c-0.12,0.15-0.21,0.32-0.26,0.51c-0.08,0.29-0.05,0.6,0.07,0.87
	c-0.13,0.28-0.15,0.55-0.12,0.8c-0.36,1.03-0.31,1.11-0.13,1.42c0.1,0.17,0.26,0.3,0.44,0.38c-0.02,0.18,0,0.38,0.08,0.58
	c-1.02,2-0.99,2.06-0.73,2.5c0.12,0.2,0.26,0.32,0.4,0.39c-0.15,0.33-0.19,0.71,0.01,1.13c-0.04,0.08-0.08,0.17-0.1,0.27
	c-0.1,0.36-0.05,0.74,0.14,1.07c0.11,0.19,0.27,0.33,0.46,0.43c0.05,0.06,0.09,0.11,0.14,0.15c0.02,0.04,0.03,0.09,0.06,0.14
	c-0.02,0.06-0.03,0.11-0.05,0.17c-0.04,0.1-0.07,0.19-0.09,0.3c-0.53,1.7-0.53,1.81-0.34,2.14c-0.26,0.39-0.38,0.86-0.06,1.41
	c0.05,0.08,0.12,0.13,0.18,0.19c-0.8,2.13-0.78,2.18-0.55,2.57c0.18,0.3,0.41,0.43,0.64,0.47c-0.23,0.37-0.32,0.8-0.09,1.29
	c-0.06,0.65-0.08,1-0.08,1.21c-0.03,0.06-0.08,0.12-0.1,0.19c-0.11,0.36-0.06,0.74,0.13,1.07c0.01,0.01,0.02,0.03,0.02,0.04
	c-0.08,0.23-0.09,0.48-0.01,0.75c-0.1,0.13-0.17,0.28-0.22,0.44c-0.07,0.25-0.05,0.5,0.02,0.74c-0.13,0.59-0.16,0.84-0.12,1
	c-0.18,0.44-0.41,1-0.59,1.44c-0.83,2.01-0.83,2.01-0.58,2.45c0.13,0.23,0.35,0.4,0.61,0.46c0.26,0.07,0.37,0.09,0.8-0.13
	c0.01,0.02,0.03,0.04,0.05,0.06c-0.29,1.85-0.28,1.89-0.11,2.19c0.08,0.14,0.2,0.26,0.33,0.35c-0.02,0.05-0.04,0.1-0.06,0.15
	c-0.05,0.13-0.09,0.23-0.14,0.35c-0.13,0.16-0.24,0.34-0.3,0.55c-0.03,0.09-0.02,0.19-0.02,0.28c-0.46,1.18-0.42,1.27-0.22,1.63
	c0.09,0.15,0.18,0.26,0.28,0.34c-0.02,0.05-0.05,0.09-0.07,0.14c-0.1,0.35-0.05,0.71,0.12,1.03c-0.55,1.56-0.53,1.61-0.32,1.98
	c0.07,0.12,0.16,0.22,0.26,0.3c-0.05,0.14-0.09,0.28-0.14,0.43c-0.95,2.9-0.95,2.9-0.71,3.32c0.3,0.51,0.59,0.62,1.12,0.42
	c0.03,0.1,0.05,0.21,0.1,0.31c0.02,0.04,0.04,0.07,0.07,0.1c-0.06,0.27-0.03,0.58,0.16,0.9c0.02,0.04,0.05,0.08,0.08,0.12
	c-0.02,0.19,0.02,0.4,0.12,0.62c0.01,0.04,0.02,0.07,0.03,0.1c-0.05,0.26-0.12,0.59-0.18,0.93c-0.1,0.52-0.18,0.91-0.24,1.23
	c-0.21,0.21-0.38,0.45-0.46,0.74c-0.1,0.35-0.05,0.73,0.14,1.05c0.14,0.25,0.37,0.41,0.62,0.5c-0.04,0.45-0.07,0.83-0.09,1.14
	c-0.25,0.22-0.44,0.47-0.53,0.79c-0.1,0.35-0.05,0.71,0.13,1.03c0.15,0.27,0.4,0.46,0.7,0.53c-0.47,0.43-0.82,0.98-0.56,1.66
	c-0.32,0.48-0.29,0.97-0.12,1.34c-0.3,0.42-0.41,0.93-0.07,1.52c0.18,0.31,0.47,0.51,0.82,0.56c0.06,0.01,0.12,0.01,0.18,0.01
	c0.59,0,1.07-0.45,1.62-0.96c0.11-0.1,0.26-0.24,0.38-0.35c0.17,0.01,0.35-0.04,0.51-0.13c0.41-0.24,0.59-0.72,0.46-1.15
	c0.42-0.46,0.63-1.04,0.23-1.73c-0.01-0.02-0.02-0.03-0.03-0.05c0.06-0.3,0.02-0.58-0.08-0.82c0.28-0.39,0.4-0.86,0.14-1.4
	c0.29-0.42,0.43-0.92,0.1-1.5c-0.05-0.08-0.1-0.16-0.17-0.23c-0.01-0.15-0.04-0.29-0.1-0.43c0.29-0.4,0.44-0.91,0.11-1.48
	c-0.13-0.22-0.31-0.38-0.53-0.48c0.28-0.24,0.49-0.51,0.59-0.86c0.1-0.36,0.05-0.73-0.14-1.06c-0.06-0.1-0.12-0.18-0.2-0.26
	c-0.01-0.13-0.05-0.27-0.11-0.42c0.3-0.42,0.49-0.96,0.15-1.56c-0.02-0.03-0.04-0.06-0.06-0.1c0.04-0.23,0-0.49-0.15-0.76
	c0.09-0.22,0.13-0.45,0.08-0.71c0.32-0.26,0.57-0.55,0.68-0.94c0.1-0.35,0.05-0.73-0.14-1.05c-0.12-0.21-0.3-0.37-0.5-0.47
	c0.28-0.23,0.5-0.49,0.59-0.84c0.08-0.3,0.05-0.62-0.09-0.91c0.01-0.04,0.03-0.08,0.04-0.12c0.09-0.35,0.04-0.71-0.14-1.02
	c-0.11-0.18-0.26-0.33-0.44-0.43c0.43-0.42,0.8-1,0.5-1.68c0.08-0.13,0.14-0.27,0.19-0.42c0.1-0.37,0.05-0.75-0.14-1.09
	c-0.03-0.06-0.07-0.11-0.11-0.16c0.03-0.19,0.01-0.38-0.07-0.59c0.04-0.08,0.07-0.15,0.09-0.24c0.09-0.32,0.06-0.65-0.08-0.95
	c0.35-0.44,0.52-0.99,0.15-1.62c-0.11-0.19-0.27-0.34-0.46-0.44c-0.02-0.14-0.06-0.28-0.13-0.42c0.12-0.31,0.13-0.66-0.1-1.06
	c-0.01-0.02-0.02-0.04-0.04-0.06c0.1-0.29,0.1-0.62-0.08-0.98c0.24-0.39,0.33-0.85,0.03-1.38c-0.03-0.05-0.06-0.1-0.09-0.14
	c0.04-0.15,0.05-0.3,0.03-0.46c0.36-0.26,0.64-0.57,0.76-0.98c0.06-0.23,0.06-0.46,0.01-0.69c0.1-0.14,0.18-0.29,0.23-0.46
	c0.11-0.36,0.06-0.74-0.13-1.07c0.11-0.26,0.13-0.54,0.04-0.85c0.05-0.09,0.1-0.19,0.13-0.3c0.11-0.36,0.06-0.74-0.13-1.08
	c-0.17-0.3-0.47-0.5-0.81-0.56c-0.03,0-0.06-0.01-0.09-0.01c0-0.01-0.01-0.01-0.01-0.02c0.28-0.37,0.44-0.82,0.23-1.34
	c0.29-0.36,0.5-0.81,0.36-1.32c0.4-0.43,0.62-0.99,0.24-1.65c-0.06-0.1-0.12-0.18-0.2-0.26c0-0.21-0.06-0.42-0.19-0.66
	c-0.1-0.17-0.23-0.3-0.39-0.4c0.59-0.44,1.26-1.14,0.81-2.04c0.26-0.4,0.35-0.88,0.03-1.43c-0.12-0.21-0.31-0.38-0.53-0.48
	c0.2-0.21,0.35-0.44,0.43-0.72c0.1-0.36,0.05-0.74-0.14-1.07c-0.04-0.06-0.08-0.13-0.13-0.18c0.07-0.3,0.03-0.62-0.18-0.98
	c-0.01-0.02-0.02-0.04-0.03-0.06c0.07-0.28,0.04-0.6-0.16-0.95c-0.04-0.07-0.09-0.14-0.14-0.2c0.02-0.15,0.01-0.31-0.03-0.48
	c0.74-0.53,1.48-1.3,0.9-2.31c-0.12-0.21-0.3-0.38-0.51-0.47c0.23-0.38,0.3-0.83,0.01-1.35c0.05-0.23,0.05-0.46-0.02-0.69
	c0.43-0.45,0.69-1.03,0.28-1.74c-0.06-0.1-0.13-0.2-0.22-0.28c0.03-0.21,0.01-0.43-0.08-0.66c0.37-0.44,0.62-1,0.25-1.65
	c0.14-0.33,0.16-0.71-0.08-1.14c-0.08-0.15-0.2-0.27-0.33-0.37c0-0.01,0-0.01,0-0.02C123.97,96.58,124.7,95.87,124.16,94.92z"/>
<path fill="#495E57" d="M123.04,177.25c-0.1-0.17-0.28-0.34-0.48-0.44c-0.03-0.1-0.07-0.2-0.14-0.31c-0.2-0.35-0.54-0.57-0.92-0.62
	c-0.27-0.04-0.53,0.03-0.78,0.14c-0.22-0.17-0.48-0.18-0.83-0.06c-0.16-0.1-0.33-0.16-0.51-0.18c-0.45-0.05-0.84,0.15-1.2,0.45
	c-0.2-0.28-0.49-0.46-0.82-0.51c-0.51-0.08-0.97,0.14-1.47,0.53c-0.21-0.21-0.48-0.34-0.77-0.37c-0.4-0.04-0.73,0.11-1.03,0.35
	c-0.21-0.25-0.49-0.4-0.81-0.44c-0.77-0.1-1.37,0.51-2.04,1.23c-0.02-0.05-0.04-0.09-0.07-0.14c-0.21-0.36-0.55-0.59-0.94-0.63
	c-0.16-0.02-0.31-0.01-0.46,0.03c-0.21-0.26-0.51-0.42-0.83-0.45c-0.53-0.06-0.95,0.21-1.35,0.59c-0.22-0.23-0.5-0.37-0.81-0.39
	c-0.46-0.03-0.81,0.17-1.12,0.46c-0.21-0.32-0.54-0.52-0.91-0.56c-0.48-0.05-0.88,0.17-1.27,0.5c-0.2-0.2-0.46-0.33-0.74-0.36
	c-0.46-0.05-0.86,0.15-1.23,0.46c-0.2-0.24-0.48-0.39-0.79-0.42c-0.18-0.02-0.34-0.01-0.51,0.04c-0.2-0.25-0.49-0.4-0.8-0.44
	c-0.77-0.09-1.38,0.51-2.08,1.22c-0.02-0.06-0.05-0.12-0.09-0.18c-0.22-0.37-0.57-0.61-0.98-0.65c-0.07-0.01-0.15-0.01-0.22,0
	c-0.19-0.19-0.44-0.32-0.71-0.36c-0.43-0.06-0.83,0.1-1.23,0.38c-0.18-0.18-0.42-0.3-0.68-0.34c-0.58-0.09-1.11,0.21-1.71,0.72
	c-0.22-0.26-0.52-0.41-0.85-0.43c-0.25-0.02-0.46,0.04-0.65,0.13c-0.19-0.22-0.46-0.37-0.75-0.41c-0.44-0.06-0.85,0.09-1.29,0.4
	c-0.21-0.27-0.51-0.45-0.85-0.49c-0.54-0.06-0.99,0.21-1.44,0.62c-0.2-0.24-0.47-0.39-0.78-0.44c-0.37-0.05-0.73,0.06-1.09,0.28
	c-0.19-0.18-0.44-0.3-0.7-0.33c-0.47-0.06-0.88,0.14-1.28,0.47c-0.2-0.32-0.52-0.53-0.88-0.58c-0.72-0.1-1.32,0.39-2.03,1.07
	c-0.01-0.02-0.03-0.05-0.04-0.07c-0.22-0.37-0.57-0.61-0.98-0.65c-0.4-0.03-0.72,0.1-1.02,0.33c-0.18-0.16-0.4-0.26-0.64-0.29
	c-0.52-0.07-0.98,0.19-1.45,0.58c-0.21-0.29-0.53-0.47-0.87-0.51c-0.46-0.05-0.84,0.15-1.2,0.45c-0.22-0.3-0.54-0.48-0.9-0.51
	c-0.57-0.03-1.01,0.29-1.4,0.72c-0.01,0-0.01,0-0.02-0.01c-0.21-0.32-0.54-0.53-0.91-0.57c-0.08-0.01-0.16-0.01-0.24,0
	c-0.2-0.23-0.47-0.38-0.77-0.43c-0.31-0.04-0.6,0.02-0.9,0.17c-0.18-0.17-0.41-0.28-0.66-0.31c-0.5-0.07-0.96,0.15-1.45,0.53
	c-0.2-0.25-0.48-0.42-0.8-0.47c-0.32-0.05-0.62,0.03-0.92,0.18c-0.17-0.14-0.38-0.24-0.61-0.27c-0.64-0.09-1.2,0.3-1.84,0.87
	c-0.68-0.16-1.33-0.32-1.52-0.38c-0.04-0.01-0.07-0.03-0.11-0.04c-0.37-0.1-0.51-0.05-1.13,0.31c-0.21-0.2-0.45-0.33-0.73-0.36
	c-0.39-0.03-0.7,0.11-0.98,0.33c-0.21-0.27-0.51-0.45-0.85-0.49c-0.29-0.04-0.55,0.03-0.8,0.16c-0.19-0.2-0.44-0.33-0.72-0.36
	c-0.44-0.06-0.84,0.11-1.24,0.4c-0.23-0.06-0.36-0.07-0.61,0.04c-0.15-0.1-0.32-0.18-0.51-0.21c-0.52-0.07-0.99,0.18-1.49,0.59
	c-0.25-0.1-0.53-0.21-0.86-0.34c-0.33-0.13-0.66-0.26-0.94-0.37c-0.04-0.02-0.08-0.03-0.12-0.05c-0.23-0.09-0.43-0.17-0.57-0.23
	c-0.37-0.34-0.84-0.19-1.57,0.22c-0.08-0.03-0.16-0.07-0.24-0.09c-0.5-0.06-0.95,0.16-1.41,0.54c-0.22-0.07-0.49-0.16-0.79-0.25
	c-0.65-0.21-1.27-0.41-1.45-0.47c-0.04-0.02-0.09-0.03-0.13-0.05c-0.42-0.11-0.51-0.06-1.44,0.49c-0.2,0.12-0.41,0.24-0.56,0.33
	c-0.19-0.03-0.44-0.05-0.73-0.08c-0.15-0.1-0.33-0.17-0.51-0.19c-0.22-0.03-0.42,0.01-0.62,0.08c-0.14-0.01-0.27-0.03-0.43-0.04
	c-0.98-0.09-2.3-0.22-2.58-0.26c-0.36-0.09-0.45-0.06-1.35,0.47c-0.2-0.31-0.52-0.51-0.88-0.56c-0.24-0.03-0.46,0.03-0.68,0.11
	c-0.39-0.25-0.76-0.48-0.95-0.6c-0.47-0.58-0.99-0.27-2.53,0.63c-0.09,0.05-0.18,0.11-0.27,0.16c-0.35,0.02-0.68,0.16-1.01,0.41
	c-0.19-0.19-0.44-0.3-0.71-0.33c-0.15-0.02-0.29,0-0.42,0.03c-0.05-0.01-0.09-0.03-0.14-0.04c-0.82-0.23-1.99-0.57-2.42-0.7
	c-0.48-0.28-1.08,0.07-1.37,0.23l-0.81,0.47c-0.14,0.08-0.28,0.16-0.41,0.24c-0.21-0.24-0.49-0.41-0.81-0.44
	c-0.39-0.03-0.71,0.1-1.02,0.32c-0.19-0.05-0.38-0.1-0.6-0.15c-0.09-0.02-0.18-0.05-0.27-0.07c-0.05-0.01-0.1-0.04-0.15-0.05
	c-0.01,0-0.03,0-0.04,0c-0.32-0.08-0.56-0.14-0.66-0.17c-0.02-0.01-0.04-0.01-0.07-0.02c-0.41-0.11-0.52-0.06-1.54,0.55
	c-0.05-0.02-0.09-0.06-0.15-0.07c-0.19-0.29-0.5-0.49-0.85-0.55c-0.45-0.07-0.87,0.09-1.31,0.4c-0.23-0.04-0.46-0.09-0.73-0.14
	c-0.9-0.17-1.7-0.32-1.92-0.37c-0.02-0.01-0.03-0.01-0.05-0.01c-0.32-0.08-0.41-0.09-1,0.24c-0.07-0.02-0.15-0.05-0.22-0.06
	c-0.4-0.05-0.74,0.08-1.07,0.32c-0.18-0.16-0.4-0.27-0.65-0.31c-0.62-0.09-1.19,0.26-1.86,0.83c0,0-0.01,0-0.01,0
	c-0.2-0.27-0.49-0.44-0.82-0.49c-0.3-0.04-0.57,0.02-0.85,0.15c-0.13-0.19-0.31-0.34-0.52-0.43c0.46-0.44,0.82-1.05,0.39-1.79
	c-0.11-0.19-0.26-0.34-0.45-0.43c0.47-0.43,0.83-0.98,0.59-1.65c0.1-0.14,0.18-0.3,0.23-0.48c0.1-0.35,0.05-0.72-0.14-1.04
	c-0.03-0.06-0.07-0.11-0.11-0.16c0.01-0.18-0.03-0.37-0.12-0.58c0.25-0.39,0.32-0.85,0.02-1.38c0.14-0.33,0.17-0.72-0.08-1.14
	c-0.12-0.21-0.31-0.38-0.53-0.47c-0.02-0.08-0.05-0.16-0.09-0.24c0.28-0.37,0.47-0.81,0.32-1.31c0.6-0.5,1.17-1.21,0.66-2.1
	c-0.17-0.29-0.46-0.49-0.79-0.55c-0.04-0.01-0.08-0.01-0.12-0.02c0.06-0.23,0.05-0.49-0.06-0.75c0.17-0.27,0.27-0.58,0.2-0.93
	c0.36-0.27,0.65-0.58,0.77-1c0.1-0.35,0.05-0.72-0.14-1.04c-0.16-0.28-0.43-0.47-0.74-0.54c0.17-0.37,0.24-0.8-0.03-1.27
	c0.2-0.38,0.27-0.82-0.01-1.31c0-0.01-0.01-0.02-0.01-0.03c0.08-0.19,0.12-0.41,0.08-0.63c0.51-0.42,1.05-1.07,0.57-1.9
	c-0.11-0.19-0.26-0.33-0.44-0.43c0.64-0.51,1.17-1.21,0.65-2.1c-0.04-0.06-0.08-0.13-0.13-0.18c0.04-0.26,0-0.54-0.17-0.85
	c0,0,0,0,0-0.01c0.05-0.22,0.03-0.45-0.08-0.71c0.23-0.35,0.32-0.76,0.11-1.24c0.29-0.41,0.42-0.9,0.09-1.47
	c-0.06-0.1-0.13-0.19-0.22-0.27c0.22-0.2,0.39-0.44,0.47-0.73c0.1-0.35,0.06-0.73-0.13-1.06c-0.13-0.22-0.32-0.39-0.55-0.48
	c-0.03-0.14-0.08-0.28-0.17-0.43c0.19-0.36,0.23-0.78-0.03-1.26c0.17-0.36,0.23-0.78-0.03-1.23c-0.01-0.02-0.02-0.03-0.03-0.04
	c0.1-0.27,0.12-0.57-0.01-0.9c0.19-0.28,0.34-0.62,0.29-0.99c0.37-0.27,0.67-0.58,0.79-1.01c0.1-0.35,0.05-0.71-0.14-1.03
	c-0.06-0.11-0.14-0.2-0.23-0.28c0.03-0.26-0.03-0.54-0.2-0.84c0.04-0.21,0.02-0.42-0.04-0.62c0.22-0.3,0.33-0.66,0.21-1.07
	c0.12-0.15,0.21-0.33,0.27-0.52c0.1-0.35,0.05-0.72-0.13-1.05c0-0.01-0.01-0.02-0.02-0.03c0.18-0.37,0.21-0.8-0.06-1.28
	c-0.17-0.29-0.46-0.49-0.79-0.55c-0.03,0-0.06-0.01-0.09-0.01c0-0.01,0-0.01-0.01-0.02c0.27-0.79,0.32-1.05,0.26-1.26
	c0.18-0.31,0.25-0.67,0.1-1.07c0.06-0.1,0.1-0.21,0.13-0.32c0.06-0.21,0.06-0.42,0.02-0.62c0.46-0.45,0.76-1.04,0.34-1.77
	c-0.16-0.28-0.43-0.47-0.74-0.54c-0.02-0.05-0.04-0.09-0.07-0.14c0.23-0.35,0.35-0.75,0.19-1.2c0.37-0.38,0.67-0.88,0.5-1.47
	c0.45-0.44,0.77-1.05,0.35-1.77c-0.18-0.31-0.47-0.51-0.8-0.57c0.37-0.42,0.58-0.94,0.32-1.54c0.23-0.34,0.34-0.74,0.16-1.2
	c0.06-0.11,0.12-0.23,0.15-0.35c0.1-0.35,0.05-0.72-0.14-1.04c-0.04-0.06-0.1-0.11-0.15-0.16c0.29-1.35,0.32-1.58,0.21-1.81
	c0.34-0.46,0.34-0.94,0.19-1.31c0.04-0.15,0.07-0.3,0.11-0.43c0.57-2.29,0.57-2.29,0.36-2.65c-0.08-0.14-0.21-0.25-0.35-0.34
	c-0.03-0.1-0.06-0.19-0.12-0.29c-0.08-0.14-0.19-0.26-0.32-0.35c-0.01-0.06-0.02-0.11-0.04-0.17c0.17-0.19,0.29-0.4,0.36-0.65
	c0.08-0.3,0.06-0.6-0.05-0.89c0.18-0.34,0.22-0.75-0.05-1.21c-0.05-0.09-0.11-0.16-0.18-0.23c0.04-0.27,0-0.57-0.19-0.89
	c-0.04-0.07-0.11-0.11-0.16-0.17c0.04-0.26,0.07-0.47,0.09-0.65c0.09-0.2,0.15-0.42,0.12-0.65c0.28-0.23,0.49-0.5,0.59-0.84
	c0.1-0.35,0.05-0.71-0.13-1.03c-0.06-0.11-0.14-0.2-0.23-0.28c0.49-2.05,0.52-2.26,0.38-2.54c0.02-0.26-0.04-0.53-0.21-0.84
	c-0.07-0.12-0.16-0.23-0.27-0.31c1.21-2.61,1.18-2.66,0.93-3.1c-0.13-0.22-0.34-0.39-0.59-0.46c-0.03-0.01-0.06-0.02-0.09-0.02
	c1-2.16,0.99-2.19,0.71-2.66c-0.24-0.39-0.48-0.53-0.82-0.48c0.07-0.21,0.09-0.43,0.03-0.67c0.75-2.23,0.74-2.25,0.52-2.64
	c-0.17-0.3-0.36-0.44-0.58-0.48c-0.07-0.06-0.14-0.12-0.22-0.17c0.96-2.58,0.95-2.61,0.71-3.02c-0.13-0.23-0.34-0.39-0.59-0.46
	c-0.02-0.01-0.04-0.01-0.06-0.01c0.18-0.2,0.32-0.41,0.39-0.68c0.09-0.35,0.04-0.73-0.14-1.05c-0.08-0.13-0.18-0.24-0.29-0.33
	c0-0.22-0.03-0.32-0.08-0.42c0.09-0.22,0.12-0.47,0.05-0.74c0.46-0.44,0.8-1.04,0.37-1.78c-0.08-0.13-0.18-0.24-0.29-0.33
	c0.05-0.34,0-0.44-0.11-0.63c-0.04-0.06-0.08-0.12-0.13-0.18c0.01-0.14,0.03-0.29,0.04-0.44c0.42-0.44,0.71-1.02,0.3-1.72
	c-0.02-0.04-0.05-0.08-0.07-0.11c0.03-0.14,0.02-0.3-0.02-0.46c0.06-0.77,0.02-0.84-0.09-1.04c-0.03-0.05-0.07-0.09-0.11-0.14
	c0.19-0.19,0.36-0.41,0.44-0.68c0.08-0.27,0.07-0.54-0.01-0.8c0.22-0.36,0.29-0.79,0-1.3c-0.03-0.05-0.06-0.1-0.1-0.14
	c0.07-0.28,0.05-0.58-0.12-0.91c0.1-0.24,0.13-0.51,0.04-0.8c0.46-1.73,0.44-1.77,0.24-2.11c-0.06-0.1-0.12-0.18-0.19-0.24
	c-0.01-0.12-0.05-0.24-0.11-0.37c0.04-0.11,0.07-0.22,0.11-0.32c0.78-2.36,0.78-2.36,0.54-2.78c-0.12-0.2-0.26-0.33-0.41-0.4
	c0.01-0.04,0.02-0.09,0.03-0.13c0.57-2.41,0.57-2.41,0.35-2.78c-0.3-0.51-0.63-0.6-1.12-0.42c-0.11-0.19-0.26-0.34-0.45-0.44
	c-0.01-0.1-0.04-0.2-0.08-0.3C4.3,56,4.27,55.94,4.1,55.64c-0.51-0.85-1.36-0.35-1.73-0.14c-0.17,0.1-0.35,0.21-0.42,0.25l0.27,0.54
	c-0.04,0.27-0.12,0.73-0.21,1.23c-0.1,0.17-0.16,0.37-0.15,0.57c-0.03,0.03-0.07,0.06-0.09,0.08c-0.46,0.41-1.43,1.25-0.84,2.27
	c0.12,0.2,0.29,0.36,0.49,0.46c-0.13,0.16-0.24,0.33-0.3,0.54c-0.11,0.35-0.06,0.73,0.13,1.06c0.07,0.11,0.15,0.21,0.25,0.3
	c0,0.12,0.02,0.25,0.06,0.38c-0.29,0.38-0.48,0.87-0.18,1.44c-0.13,0.28-0.18,0.6-0.05,0.95c-0.45,0.47-0.71,1.06-0.29,1.78
	c0.14,0.24,0.36,0.42,0.61,0.51c-0.45,0.45-0.76,1.02-0.45,1.7c-0.22,0.37-0.29,0.82,0.01,1.33c0.13,0.22,0.33,0.39,0.56,0.49
	c0.01,0.03,0.02,0.06,0.03,0.09c-0.13,0.22-0.21,0.47-0.18,0.75c-0.41,0.27-0.73,0.59-0.86,1.04c-0.11,0.36-0.06,0.74,0.13,1.07
	c0.17,0.3,0.46,0.5,0.79,0.56c0.03,0.09,0.07,0.18,0.12,0.27c0.01,0.02,0.03,0.04,0.04,0.07c-0.05,0.21-0.05,0.44,0.03,0.69
	c-0.28,0.34-0.46,0.75-0.33,1.23c-0.43,0.42-0.78,0.99-0.44,1.68C0.92,79.15,0.9,79.55,1.16,80c0.1,0.18,0.25,0.32,0.42,0.42
	c-0.4,0.42-0.66,0.99-0.27,1.66c0.09,0.16,0.21,0.29,0.35,0.38c-0.31,0.25-0.54,0.55-0.64,0.92c-0.09,0.34-0.05,0.71,0.12,1.02
	c-0.11,0.31-0.1,0.65,0.12,1.03c0.11,0.19,0.25,0.33,0.43,0.44c0,0.02,0.01,0.03,0.01,0.05c-0.24,0.35-0.4,0.81-0.15,1.32
	c-0.22,0.3-0.36,0.64-0.31,1.02c-0.21,0.2-0.37,0.42-0.45,0.7c-0.11,0.37-0.07,0.76,0.13,1.1c0.01,0.02,0.03,0.05,0.05,0.07
	c-0.16,0.36-0.18,0.76,0.08,1.21c0.11,0.2,0.28,0.35,0.48,0.45c0.03,0.1,0.08,0.21,0.14,0.31c0.06,0.1,0.13,0.19,0.21,0.27
	c-0.01,0.1-0.01,0.19,0,0.29c-0.45,0.37-0.96,0.96-0.66,1.69c-0.36,0.44-0.58,0.99-0.21,1.64c0.05,0.08,0.1,0.15,0.16,0.21
	c-0.03,0.25,0.02,0.53,0.19,0.82c0.01,0.01,0.02,0.03,0.02,0.04c-0.06,0.28-0.03,0.59,0.17,0.92c0.02,0.03,0.04,0.07,0.06,0.1
	c-0.08,0.24-0.11,0.5-0.03,0.78c-0.63,0.52-1.1,1.22-0.6,2.1c0.01,0.02,0.02,0.04,0.03,0.06c-0.12,0.33-0.12,0.7,0.12,1.11
	c0.1,0.18,0.25,0.32,0.42,0.42c-0.08,0.12-0.14,0.25-0.18,0.39c-0.1,0.35-0.05,0.71,0.13,1.03c0.05,0.1,0.12,0.18,0.19,0.25
	c0,0.04,0,0.08,0.01,0.12c-0.5,0.41-0.99,1.04-0.56,1.83c-0.24,0.4-0.31,0.86,0,1.39c0.08,0.14,0.19,0.26,0.32,0.35
	c-0.31,0.26-0.55,0.56-0.66,0.94c-0.08,0.3-0.06,0.61,0.05,0.9c-0.04,0.08-0.07,0.16-0.09,0.25c-0.1,0.35-0.05,0.72,0.14,1.04
	c0.15,0.26,0.4,0.45,0.69,0.53c-0.17,0.33-0.21,0.71,0.01,1.15c-0.24,0.37-0.38,0.83-0.15,1.34c-0.12,0.29-0.12,0.58-0.06,0.84
	c-0.09,0.13-0.16,0.27-0.2,0.43c-0.08,0.31-0.05,0.63,0.09,0.92c-0.25,0.37-0.37,0.81-0.16,1.3c-0.05,0.09-0.08,0.18-0.11,0.28
	c-0.1,0.35-0.05,0.72,0.14,1.04c0.07,0.12,0.16,0.22,0.26,0.31c0.01,0.1,0.03,0.2,0.06,0.31c-0.6,0.51-1.07,1.2-0.57,2.06
	c0.17,0.3,0.47,0.5,0.8,0.56c-0.05,0.39,0,0.48,0.11,0.67c0.05,0.08,0.1,0.14,0.15,0.2c0.01,0.03,0.02,0.07,0.03,0.1
	c-0.27,0.35-0.46,0.78-0.31,1.27c-0.62,0.5-1.28,1.25-0.74,2.18c0.01,0.01,0.01,0.02,0.02,0.03c-0.13,0.33-0.13,0.7,0.1,1.12
	c0.04,0.06,0.08,0.12,0.12,0.17c-0.01,0.11,0,0.22,0.02,0.33c-0.19,0.19-0.33,0.41-0.4,0.68c-0.09,0.34-0.04,0.7,0.14,1.01
	c0.04,0.06,0.08,0.12,0.13,0.18c-0.03,0.25,0.01,0.52,0.18,0.81c0.1,0.17,0.22,0.3,0.37,0.4c-0.58,0.49-1.21,1.21-0.68,2.12
	c0.04,0.08,0.1,0.15,0.16,0.21c-0.17,0.59-0.11,0.69,0.03,0.94c0.01,0.01,0.02,0.02,0.03,0.03c-0.08,0.32-0.05,0.65,0.1,0.94
	c-0.09,0.23-0.11,0.48-0.02,0.76c-0.09,0.13-0.15,0.27-0.2,0.42c-0.08,0.29-0.06,0.6,0.07,0.87c-0.35,0.45-0.51,0.99-0.15,1.62
	c0.07,0.13,0.18,0.23,0.29,0.32c-0.51,1.49-0.48,1.56-0.28,1.92c-0.15,0.34-0.18,0.74,0.07,1.17c0.13,0.23,0.32,0.4,0.55,0.49
	c-0.6,0.49-1.15,1.19-0.64,2.08c0.04,0.07,0.09,0.14,0.14,0.19c-0.06,0.24-0.05,0.49,0.06,0.77c-0.02,0.05-0.04,0.11-0.06,0.17
	c-0.04,0.15-0.05,0.31-0.04,0.47c-0.87,2.05-0.84,2.12-0.61,2.51c0.13,0.23,0.35,0.4,0.61,0.47c0.05,0.01,0.1,0.03,0.15,0.03
	c-0.05,0.25-0.1,0.5-0.15,0.72c-0.44,2.08-0.44,2.08-0.24,2.42c0.07,0.13,0.18,0.23,0.3,0.31c-0.05,0.26-0.02,0.55,0.14,0.86
	c-0.65,1.55-0.61,1.64-0.39,2.02c0.14,0.23,0.3,0.36,0.48,0.43c-0.03,0.22-0.03,0.45,0.09,0.7c-0.31,0.42-0.47,0.95-0.13,1.54
	c0.1,0.18,0.25,0.33,0.42,0.43c-0.56,0.42-1.17,1.08-0.67,1.97c0.03,0.05,0.06,0.09,0.09,0.13c-0.02,0.2,0,0.4,0.06,0.58
	c-0.36,0.43-0.56,0.97-0.19,1.61c0.09,0.15,0.2,0.28,0.34,0.37c-0.42,0.42-0.71,0.99-0.31,1.69c0.16,0.27,0.42,0.47,0.73,0.54
	c0.01,0.03,0.03,0.06,0.04,0.1c-0.02,0.07-0.03,0.12-0.04,0.19c-0.23,0.33-0.38,0.72-0.27,1.16c-0.01,0.03-0.01,0.06-0.02,0.09
	c-0.46,0.45-0.82,1.07-0.39,1.82c0.11,0.2,0.28,0.36,0.48,0.45c-0.52,0.47-0.85,1.09-0.41,1.87c0.03,0.05,0.06,0.09,0.09,0.13
	c-0.02,0.19,0.02,0.4,0.12,0.62c-0.03,0.07-0.06,0.15-0.09,0.23c-0.08,0.3-0.06,0.62,0.07,0.91c-0.25,0.35-0.38,0.76-0.22,1.23
	c-0.32,0.4-0.48,0.9-0.13,1.5c0.17,0.3,0.46,0.5,0.8,0.55c0.01,0,0.02,0,0.04,0.01c0.01,0.02,0.03,0.05,0.04,0.07
	c0.02,0.03,0.03,0.05,0.05,0.08c-0.12,0.33-0.14,0.71,0.09,1.11c0,0,0,0,0,0c-0.23,0.39-0.31,0.86-0.01,1.38
	c0.2,0.34,0.53,0.57,0.91,0.62c0.46,0.06,0.88-0.12,1.31-0.45c0.19,0.22,0.45,0.37,0.75,0.42c0.66,0.1,1.28-0.31,2.02-0.97
	c0.21,0.25,0.49,0.4,0.81,0.44c0,0,0.01,0,0.01,0c0.2,0.24,0.47,0.4,0.78,0.44c0.58,0.08,1.1-0.23,1.66-0.72
	c0.21,0.21,0.47,0.33,0.76,0.36c0.06,0.01,0.12,0.01,0.18,0c0.19,0.2,0.44,0.33,0.71,0.38c0.65,0.1,1.23-0.28,1.93-0.89
	c0.22,0.25,0.52,0.4,0.84,0.42c0.25,0.02,0.47-0.04,0.67-0.15c0.2,0.23,0.48,0.38,0.78,0.42c0.65,0.08,1.19-0.33,1.76-0.89
	c0.22,0.31,0.54,0.51,0.91,0.55c0.45,0.04,0.81-0.14,1.15-0.42c0.22,0.3,0.54,0.49,0.9,0.52c0.28,0.03,0.53-0.04,0.76-0.17
	c0.2,0.3,0.51,0.49,0.86,0.54c0.51,0.07,0.96-0.16,1.44-0.54c0.21,0.27,0.51,0.44,0.84,0.48c0.26,0.03,0.5-0.02,0.73-0.12
	c0.19,0.17,0.42,0.28,0.67,0.32c0.42,0.05,0.8-0.09,1.19-0.36c0.2,0.22,0.47,0.35,0.76,0.39c0.65,0.08,1.17-0.33,1.72-0.88
	c0.2,0.23,0.48,0.38,0.78,0.42c0.37,0.05,0.71-0.07,1.05-0.28c0.22,0.32,0.54,0.52,0.91,0.55c0.39,0.03,0.73-0.1,1.04-0.34
	c0.2,0.24,0.49,0.4,0.8,0.44c0.47,0.06,0.88-0.14,1.28-0.46c0.2,0.22,0.46,0.36,0.76,0.4c0.43,0.05,0.81-0.1,1.19-0.38
	c0.2,0.28,0.49,0.46,0.83,0.51c0.45,0.07,0.87-0.1,1.31-0.41c0.21,0.25,0.49,0.41,0.81,0.45c0.05,0.01,0.11,0.01,0.16,0.01
	c0.62,0,1.14-0.45,1.69-1.01c0.2,0.33,0.53,0.54,0.9,0.59c0.5,0.07,0.93-0.15,1.39-0.51c0.2,0.29,0.51,0.47,0.85,0.52
	c0.54,0.07,1.01-0.19,1.5-0.62c0.23,0.3,0.55,0.47,0.91,0.49c0.07,0,0.13,0,0.19,0c0.2,0.25,0.48,0.41,0.8,0.46
	c0.61,0.08,1.14-0.26,1.72-0.78c0.2,0.26,0.49,0.42,0.81,0.46c0.44,0.06,0.83-0.1,1.23-0.39c0.2,0.22,0.47,0.35,0.76,0.39
	c0.62,0.07,1.1-0.28,1.61-0.78c0.22,0.36,0.57,0.58,0.97,0.61c0.21,0.01,0.4-0.02,0.58-0.09c0.21,0.27,0.51,0.43,0.84,0.47
	c0.6,0.06,1.08-0.29,1.54-0.76c0,0,0,0.01,0,0.01c0.2,0.34,0.53,0.57,0.91,0.62c0.27,0.04,0.52-0.01,0.78-0.12
	c0.17,0.15,0.38,0.24,0.61,0.27c0.51,0.08,0.99-0.17,1.5-0.57c0.2,0.26,0.49,0.43,0.81,0.48c0.31,0.05,0.61-0.02,0.9-0.17
	c0.18,0.16,0.41,0.27,0.65,0.31c0.43,0.06,0.84-0.1,1.26-0.4c0.2,0.21,0.46,0.33,0.75,0.36c0.02,0,0.04-0.01,0.06-0.01
	c0.48,0.29,1.08-0.05,1.54-0.32l0.57-0.33c0.19,0.16,0.42,0.26,0.67,0.28c0.31,0.02,0.58-0.06,0.81-0.21
	c0.21,0.26,0.51,0.43,0.84,0.46c0.34,0.03,0.64-0.06,0.92-0.24c0.2,0.24,0.48,0.4,0.79,0.44c0.51,0.07,0.96-0.18,1.42-0.56
	c0.1-0.04,0.22-0.1,0.37-0.18c0.2,0.18,0.44,0.3,0.7,0.33c0.43,0.04,0.78-0.13,1.1-0.4c0.2,0.3,0.51,0.5,0.86,0.54
	c0.16,0.02,0.32,0.01,0.47-0.02c0.07,0.04,0.13,0.07,0.16,0.09c0.08,0.05,0.16,0.08,0.25,0.11c0.34,0.09,0.42,0.1,1.34-0.43
	c0.13,0.07,0.27,0.12,0.42,0.14c0.11,0.01,0.22,0.01,0.33,0c0.19,0.22,0.45,0.36,0.74,0.4c0.49,0.07,0.94-0.14,1.42-0.51
	c0.63,0.24,1.18,0.46,1.34,0.52c0.06,0.03,0.12,0.05,0.19,0.07c0.31,0.08,0.46,0.06,0.9-0.18c0.1,0.04,0.2,0.08,0.31,0.1
	c0.45,0.07,0.86-0.1,1.3-0.4c0.19,0.07,0.4,0.15,0.65,0.23c0.89,0.32,1.85,0.66,2.07,0.75c0.06,0.03,0.12,0.05,0.18,0.07
	c0.1,0.03,0.17,0.05,0.26,0.05c0.25,0,0.59-0.18,1.84-0.91c0.44,0.04,0.84-0.14,1.26-0.45c0.2,0.17,0.44,0.28,0.7,0.31
	c0.36,0.03,0.65-0.08,0.93-0.27c0.09,0.02,0.16,0.03,0.26,0.05c0.89,0.18,2.09,0.42,2.37,0.49c0.04,0.01,0.07,0.03,0.11,0.04
	c0.31,0.08,0.5,0.04,0.85-0.16c0.18-0.06,0.36-0.14,0.53-0.26c0.31,0.07,0.73,0.17,1.31,0.29c0.91,0.2,1.9,0.41,2.14,0.47
	c0.02,0.01,0.05,0.01,0.07,0.02c0.41,0.11,0.55,0.03,1.31-0.42c0.22-0.13,0.45-0.27,0.61-0.36c0.43,0.01,1.05,0,1.97-0.01
	c0.05,0,0.11,0,0.16,0c0.21,0.27,0.5,0.45,0.84,0.49c0.5,0.06,0.92-0.17,1.34-0.53c0.59-0.01,1.12-0.01,1.52-0.01
	c0.08,0.03,0.16,0.05,0.24,0.06c0.17,0.02,0.34,0,0.49-0.05c0.2,0.01,0.38-0.03,0.51-0.1c0.31,0,0.72-0.02,1.25-0.04
	c0.19,0.3,0.5,0.51,0.85,0.56c0.56,0.08,1.07-0.2,1.65-0.67c0.38-0.02,0.75-0.03,1.08-0.05c0.16,0.11,0.35,0.18,0.55,0.2
	c0.24,0.02,0.46-0.02,0.66-0.1c0.2,0.27,0.5,0.45,0.83,0.49c0.36,0.05,0.7-0.06,1.02-0.26c0.17,0.15,0.38,0.26,0.57,0.29
	c0.66,0.11,1.16-0.34,1.79-0.9c0.11-0.1,0.28-0.24,0.4-0.35c0.16,0,0.32-0.05,0.47-0.13C123.15,178.34,123.31,177.73,123.04,177.25z
	"/>
</svg>
