<svg xmlns="http://www.w3.org/2000/svg" xml:space="preserve" width="546" height="152">
  <g fill="#495E57">
    <path d="m138.69 65.85-.2 2.49c-.53.17-1.2.34-2.01.52-.81.18-1.7.34-2.66.5l1.08-2.8v4.45h-6.8v-4.45l.99 2.66-3.77-.82.2-2.55h13.17zm-13.25 28.04.2-2.49c.91-.4 2.09-.76 3.54-1.1l-1.08 2.89v-4.45h6.8v4.45l-.99-2.66 3.77.82-.2 2.55h-12.04zm2.66-.43V66.25h6.8v27.22h-6.8zm3.57.43v-3.68h14.3l1.05 3.68h-15.35zm15.35 0-5.69-2.35 4.36-7.7h2.66c0 3.58-.44 6.93-1.33 10.05zM173.06 65.85l-.2 2.49c-.91.4-2.09.76-3.54 1.1l1.08-2.89V71h-6.8v-4.45l.99 2.66-3.77-.82.2-2.55h12.04zm-12.12 28.04.2-2.49c.91-.4 2.09-.76 3.54-1.1l-1.08 2.89v-4.45h6.8v4.45l-.99-2.66 3.77.82-.2 2.55h-12.04zm2.66-.43V66.25h6.8v27.22h-6.8zM185.39 75.05c-.26-3.17-.1-6.24.48-9.2l5.49 2.46-3.2 6.74h-2.77zm.96-5.52-.48-3.68h24.02l-.99 3.68h-22.55zm5.02 24.36.2-2.49a13 13 0 0 1 1.85-.59c.69-.17 1.4-.31 2.14-.42l-1.08 2.8v-4.45h6.8v4.45l-.99-2.63 4.22.79-.2 2.55h-12.94zm3.11-.43V66.25h6.8v27.22h-6.8zm13.11-18.41-3.2-6.74 5.49-2.46c.58 2.96.75 6.03.48 9.2h-2.77zM221.94 75.05c-.26-3.17-.1-6.24.48-9.2l5.49 2.46-3.2 6.74h-2.77zm.96-5.52-.48-3.68h24.02l-.99 3.68H222.9zm5.01 24.36.2-2.49a13 13 0 0 1 1.85-.59c.69-.17 1.4-.31 2.14-.42l-1.08 2.8v-4.45h6.8v4.45l-.99-2.63 4.22.79-.2 2.55h-12.94zm3.12-.43V66.25h6.8v27.22h-6.8zm13.11-18.41-3.2-6.74 5.49-2.46c.58 2.96.75 6.03.48 9.2h-2.77zM272.45 65.85l-.2 2.49c-.53.17-1.2.34-2.01.52-.81.18-1.7.34-2.66.5l1.08-2.8v4.45h-6.8v-4.45l.99 2.66-3.77-.82.2-2.55h13.17zm-13.26 28.04.2-2.49c.91-.4 2.09-.76 3.54-1.1l-1.08 2.89v-4.45h6.8v4.45l-.99-2.66 3.77.82-.2 2.55h-12.04zm2.67-.43V66.25h6.8v27.22h-6.8zm3.56.43v-3.68h14.3l1.05 3.68h-15.35zm15.35 0-5.69-2.35 4.36-7.7h2.66c.01 3.58-.44 6.93-1.33 10.05zM306.76 65.85l-.2 2.49c-.91.4-2.09.76-3.54 1.1l1.08-2.89V71h-6.8v-4.45l.99 2.66-3.77-.82.2-2.55h12.04zm-12.12 28.04.2-2.49c.91-.4 2.09-.76 3.54-1.1l-1.08 2.89v-4.45h6.8v4.45l-.99-2.66 3.77.82-.2 2.55h-12.04zm2.66-.43V66.25h6.8v27.22h-6.8zm1.95-23.93v-3.68h17.59l-.54 3.68h-17.05zm1.19 11.9v-3.85h12.8l-.28 3.85h-12.52zm.46 12.46v-3.68h15.58l.68 3.68H300.9zm13.48-19.63-2.83-5.95 5.3-2.46c.3 1.36.5 2.77.61 4.22.1 1.45.11 2.85.01 4.19h-3.09zm2.77 19.63-5.52-2.35 3.77-6.57h3.03c.04 1.28-.05 2.7-.27 4.25-.22 1.54-.56 3.1-1.01 4.67zM363.26 65.85l-.2 2.49c-.53.17-1.2.34-2.01.52-.81.18-1.7.34-2.66.5l1.08-2.8v4.45h-6.8v-4.45l.99 2.66-3.77-.82.2-2.55h13.17zM350 93.89l.2-2.49c.91-.4 2.09-.76 3.54-1.1l-1.08 2.89v-4.45h6.8v4.45l-.99-2.66 3.77.82-.2 2.55H350zm2.67-.43V66.25h6.8v27.22h-6.8zm3.56.43v-3.68h14.3l1.05 3.68h-15.35zm15.35 0-5.69-2.35 4.36-7.7h2.66c0 3.58-.44 6.93-1.33 10.05zM397.57 65.85l-.2 2.49c-.91.4-2.09.76-3.54 1.1l1.08-2.89V71h-6.8v-4.45l.99 2.66-3.77-.82.2-2.55h12.04zm-12.12 28.04.2-2.49c.91-.4 2.09-.76 3.54-1.1l-1.08 2.89v-4.45h6.8v4.45l-.99-2.66 3.77.82-.2 2.55h-12.04zm2.66-.43V66.25h6.8v27.22h-6.8zm1.95-23.93v-3.68h17.59l-.54 3.68h-17.05zm1.19 11.9v-3.85h12.8l-.28 3.85h-12.52zm.45 12.46v-3.68h15.58l.68 3.68H391.7zm13.48-19.63-2.83-5.95 5.3-2.46c.3 1.36.5 2.77.61 4.22.1 1.45.11 2.85.01 4.19h-3.09zm2.78 19.63-5.52-2.35 3.77-6.57h3.03c.04 1.28-.05 2.7-.27 4.25-.22 1.54-.56 3.1-1.01 4.67zM421.65 93.89l.2-2.49c.85-.42 1.97-.78 3.37-1.1L424 92.87l1.67-25.71.91 2.07-3.96-.82.2-2.55h7.19l-1.47 26.96-.88-2.27 4.05.79-.2 2.55h-9.86zm15.3-1.42-9.8-26.62h6.97l8.61 24.13-.51 2.38c-.85.08-1.73.13-2.65.16-.92.02-1.79.01-2.62-.05zm5.26-.11-3.82-.51 8.86-26h4.73l-9.77 26.51zm5.36 1.53.2-2.49c.51-.21 1.1-.41 1.77-.59.67-.19 1.36-.35 2.05-.48l-.96 2.35-1.44-26.82h9.37l-.2 2.49c-1.04.43-2.29.79-3.77 1.08l1.08-2.01 1.67 25.18-1.08-2.07 3.57.82-.2 2.55h-12.06zM486.58 94.4c-2.91 0-5.44-.59-7.59-1.78s-3.81-2.87-4.98-5.04-1.76-4.73-1.76-7.67c0-2.96.58-5.54 1.76-7.72s2.83-3.87 4.98-5.05 4.69-1.78 7.62-1.78 5.47.59 7.62 1.78 3.81 2.87 4.98 5.03c1.17 2.16 1.76 4.73 1.76 7.69s-.58 5.54-1.76 7.72-2.83 3.87-4.98 5.06-4.71 1.76-7.65 1.76zm.71-3.63c3.98 0 5.98-3.27 5.98-9.8 0-3.85-.63-6.82-1.9-8.89s-3.08-3.12-5.44-3.12c-3.98 0-5.98 3.27-5.98 9.8 0 3.85.64 6.82 1.91 8.89 1.28 2.08 3.08 3.12 5.43 3.12zM520.69 70.72l-3.26-.99-3.77-1.33.2-2.55h6.94l-.11 4.87zm-6.86 23.17.2-2.49c.91-.4 2.09-.76 3.54-1.1l-1.08 2.89v-4.45h4.53v4.45l-.99-2.63 4.16.79-.2 2.55h-10.16zm2.67-.43V66.25l4.53 1.67v25.54h-4.53zm19.2.6-18.92-23.05 4.02-5.15 18.92 23.11.28 4.96c-1.21.17-2.64.22-4.3.13zm6.8-28.21-.2 2.49c-.96.45-2.09.82-3.37 1.1l1.08-2.89V71h-4.53v-4.45l.99 2.66-3.77-.82.2-2.55h9.6zM540 93.92l-4.53-2.41V66.25H540v27.67z"/>
  </g>
  <path fill="#FEFEFF" d="M32.06 10.17c-.12 0-.27.05-.37 0-.88-.45-1.7-.39-2.58.09-.71.38-1.51.68-2.3.81-1.06.17-1.9.67-2.74 1.29-.78.57-1.35 1.39-2.16 1.86-1.88 1.09-1.96 3.36-3.3 4.78-.04.05.03.29 0 .46-.19 1.03-.23 2.07-.16 3.1.07 1.03-.16 2.01-.3 2.99-.24 1.7-.21 3.51-1.46 4.93-.25.28-.42.63-.49 1-.29 1.62-1.01 3.06-1.76 4.5-.48.91-.81 1.91-1.15 2.89-.33.94-.55 1.92-.89 2.85-.63 1.72-1.35 3.39-2.68 4.73-.93.93-1.42 2.13-1.77 3.39-.45 1.64-.5 3.48-1.58 4.81-1.19 1.46-1.03 3.32-1.9 4.82-.02.04-.03.08-.06.11-.48.7-.55 1.46-.37 2.27.21.91.12 1.81.04 2.72-.24 2.74-1.08 5.47-.14 8.24.09.26.14.54.22.82.2.67.49 1.44.18 2.07-.57 1.18-.38 2.33-.1 3.49.3 1.22.43 2.46.4 3.7-.03 1.27.12 2.46.75 3.6.34.62.41 1.35.58 2.03.34 1.37.43 2.77.89 4.13.61 1.82 1.22 3.64 1.57 5.54.31 1.68.73 3.31 1.89 4.68.39.46.6 1.09.85 1.66.36.81.86 1.52 1.39 2.21 1.52 1.93 3.45 3.59 3.99 6.15.01.07.1.12.14.19 1.4 1.94 2.63 4.01 4.66 5.42.42.29.75.78 1 1.24.46.85 1.09 1.55 1.82 2.15.83.7 1.6 1.49 2.19 2.36 1.19 1.76 2.79 3.05 4.46 4.27 1.34.97 2.71 1.91 3.75 3.21 1.56 1.96 3.59 3.2 5.84 4.12 2.27.93 4.56 1.83 6.88 2.62 1.15.4 2.28.95 3.52 1.04 1.54.1 2.8.81 4.02 1.68.52.37 1.17.66 1.79.76 1.79.29 3.11 1.29 4.24 2.59.5.57.97 1.13 1.7 1.41 1.32.5 2.36 1.36 3.23 2.45.29.35.65.71 1.11.73 1.79.06 3.58.13 5.36-.16.22-.03.44-.09.52-.29.48-1.22.96-2.45 1.41-3.69.1-.27-.12-.55-.21-.83-.23-.72-.29-1.45-.2-2.21.23-2.03.86-3.95 1.51-5.86.31-.91.64-1.93 1.44-2.57.84-.66 1.27-1.5 1.53-2.48.22-.84.43-1.68.69-2.5.35-1.09.59-2.22 1.34-3.16.96-1.21 1.78-2.49 1.96-4.09.04-.33.12-.66.26-.96 1.15-2.61 2-5.31 2.62-8.09.39-1.74.97-3.44 1.84-5.01.22-.4.44-.8.46-1.27.05-1.38.39-2.7.79-4.01.07-.24.18-.48.18-.72-.01-1.63.38-3.21.6-4.81.18-1.29.23-2.61.99-3.76.26-.39.22-.83.05-1.31-.43-1.2-.45-2.39.02-3.63.28-.74.38-1.59.38-2.43.02-1.91-.1-3.82-.06-5.73.04-2.09-.01-4.12-.9-6.07-.34-.75-.4-1.6-.21-2.44.2-.86.26-1.7-.27-2.52-.23-.36-.29-.84-.39-1.28-.45-1.99-1.12-3.91-1.95-5.76-.77-1.7-1.38-3.42-1.52-5.29-.03-.37-.23-.7-.43-1.02-1.12-1.82-2.55-3.48-2.95-5.68-.06-.34-.35-.66-.6-.93-1.27-1.34-2.05-2.99-2.94-4.57-.4-.71-.84-1.37-1.48-1.79-1.19-.78-1.94-1.88-2.66-3.04-.51-.81-.94-1.69-1.79-2.21-.97-.59-1.73-1.42-2.53-2.2-1.19-1.16-2.35-2.36-3.74-3.28-1.34-.88-2.47-2.08-4-2.63-.73-.26-1.31-.68-1.8-1.24-.69-.79-1.45-1.44-2.55-1.61-.27-.04-.52-.23-.76-.39-1.61-1.03-3.03-2.29-4.46-3.54 6.87-.85 13.42-2.74 19.59-5.92 1.68-.87 3.15-1.99 4.54-3.27.43-.39.52-.79.37-1.33-.25-.88-.61-1.67-1.25-2.37-.7-.76-1.58-1.09-2.49-1.47-1.41-.6-2.85-1.12-4.35-1.39-1.68-.31-3.33-.74-4.82-1.56-1.83-1.01-3.81-1.39-5.83-1.7-2.19-.34-4.41-.02-6.61-.2-2.93-.25-5.67.6-8.46 1.21-.4.09-.73.32-1.09.49-1.68.78-3.17 1.91-5.01 2.4-.86.23-1.81.59-2.39 1.34-.68.91-1.62 1.4-2.59 1.87z"/>
  <path fill="#F4CE14" d="M52.47 22.09c1.43 1.26 2.86 2.51 4.46 3.54.24.15.49.35.76.39 1.09.17 1.86.82 2.55 1.61.49.56 1.07.98 1.8 1.24 1.53.56 2.67 1.75 4 2.63 1.4.92 2.56 2.11 3.74 3.28.8.78 1.56 1.61 2.53 2.2.85.52 1.28 1.41 1.79 2.21.73 1.16 1.47 2.26 2.66 3.04.64.42 1.08 1.08 1.48 1.79.89 1.58 1.67 3.23 2.94 4.57.25.27.54.59.6.93.4 2.2 1.83 3.86 2.95 5.68.2.32.41.65.43 1.02.14 1.87.75 3.59 1.52 5.29.83 1.85 1.5 3.77 1.95 5.76.1.44.16.91.39 1.28.52.82.46 1.66.27 2.52-.19.84-.13 1.69.21 2.44.89 1.95.94 3.98.9 6.07-.04 1.9.08 3.82.06 5.73-.01.84-.1 1.68-.38 2.43-.47 1.24-.46 2.43-.02 3.63.17.48.21.91-.05 1.31-.76 1.15-.81 2.47-.99 3.76-.23 1.6-.61 3.18-.6 4.81 0 .24-.11.48-.18.72-.39 1.31-.74 2.63-.79 4.01-.02.46-.24.86-.46 1.27-.87 1.58-1.45 3.27-1.84 5.01-.62 2.78-1.47 5.48-2.62 8.09-.13.3-.22.63-.26.96-.17 1.59-1 2.88-1.96 4.09-.75.94-.98 2.07-1.34 3.16-.27.82-.48 1.66-.69 2.5-.25.99-.69 1.82-1.53 2.48-.8.63-1.13 1.66-1.44 2.57-.65 1.91-1.28 3.83-1.51 5.86-.09.76-.03 1.49.2 2.21.09.28.31.56.21.83-.44 1.24-.92 2.46-1.41 3.69-.08.2-.3.26-.52.29-1.78.29-3.57.21-5.36.16-.47-.01-.83-.37-1.11-.73-.88-1.08-1.92-1.94-3.23-2.45-.73-.28-1.2-.84-1.7-1.41-1.13-1.3-2.46-2.3-4.24-2.59-.63-.1-1.27-.4-1.79-.76-1.23-.86-2.48-1.57-4.02-1.68-1.24-.08-2.37-.64-3.52-1.04-2.32-.8-4.61-1.69-6.88-2.62-2.25-.92-4.29-2.17-5.84-4.12-1.03-1.3-2.41-2.24-3.75-3.21-1.68-1.22-3.27-2.51-4.46-4.27-.59-.87-1.36-1.66-2.19-2.36-.72-.61-1.35-1.31-1.82-2.15-.25-.46-.58-.95-1-1.24-2.03-1.41-3.26-3.48-4.66-5.42-.05-.06-.13-.12-.14-.19-.55-2.56-2.48-4.22-3.99-6.15-.53-.68-1.04-1.4-1.39-2.21-.25-.57-.46-1.19-.85-1.66-1.16-1.36-1.58-3-1.89-4.68-.35-1.9-.95-3.73-1.57-5.54-.46-1.35-.55-2.76-.89-4.13-.17-.68-.24-1.41-.58-2.03-.63-1.13-.77-2.33-.75-3.6.03-1.24-.11-2.48-.4-3.7-.28-1.16-.47-2.3.1-3.49.3-.63.02-1.4-.18-2.07-.08-.27-.14-.56-.22-.82-.94-2.77-.1-5.5.15-8.24.08-.92.17-1.82-.04-2.72-.19-.8-.11-1.57.37-2.27.02-.03.03-.08.06-.11.87-1.5.71-3.36 1.9-4.82 1.08-1.33 1.13-3.17 1.58-4.81.34-1.25.84-2.46 1.77-3.39 1.34-1.34 2.06-3 2.68-4.73.34-.93.56-1.91.89-2.85.34-.98.67-1.97 1.15-2.89.76-1.44 1.47-2.88 1.76-4.5.07-.37.24-.72.49-1 1.25-1.42 1.22-3.23 1.46-4.93.14-.98.37-1.97.3-2.99-.07-1.03-.03-2.08.16-3.1.03-.17-.04-.41 0-.46 1.34-1.42 1.43-3.69 3.3-4.78.81-.47 1.39-1.29 2.16-1.86.84-.61 1.67-1.11 2.74-1.29.79-.13 1.59-.43 2.3-.81.88-.48 1.7-.54 2.58-.09.1.05.24 0 .37 0 .33.55.87.58 1.3.29 1.11-.77 2.39-.92 3.64-1.21 1.66-.38 3.33-.69 5.05-.47.66.09 1.33.04 1.98-.14.89-.26 1.81-.26 2.72-.31 1.67-.09 3.33.34 4.98.27 2.73-.13 5.36.7 8.06.69.41 0 .82.13 1.22.23.65.16 1.3.31 1.97.29.59-.02 1.1.19 1.6.44-.08.22-.25.24-.42.24-2.17.09-4.33.13-6.5.02-.92-.05-1.83-.11-2.74-.03-2.82.26-5.65.29-8.48.36-2.75.07-5.5.03-8.24.07-1.04.02-2.08.13-3.11.21-.24.02-.55-.02-.64.27-.09.27.15.45.32.63.74.79 1.45 1.61 2.31 2.27.9.68 1.74 1.42 2.39 2.35.37.53.87.9 1.46 1.14.96.4 1.91.83 2.95.99.63.1 1.19.35 1.73.67 2.12 1.24 4.49 1.9 6.83 2.63zm.72 23.25c-.01-.23 0-.45-.04-.65-.38-1.65-.66-3.31-.72-5.01-.01-.37-.05-.79-.23-1.09-.7-1.15-.63-2.42-.68-3.67-.03-.59-.12-1.14-.43-1.66-.71-1.22-1.34-2.49-1.87-3.8-.21-.51-.52-.96-.91-1.33-2.2-2.09-4.32-4.24-6.29-6.55-.13-.16-.28-.32-.45-.43-1.81-1.08-3.31-2.49-4.58-4.16-.2-.26-.48-.46-.72-.69-.86-.79-1.75-1.54-2.56-2.37a6.159 6.159 0 0 0-2.16-1.44c-1.11-.45-2.62-.13-3.36.81-.61.78-1.21 1.59-1.57 2.53-.31.82-.75 1.57-1.26 2.28-.88 1.23-1.47 2.61-1.85 4.06-.37 1.4-.71 2.82-.96 4.24-.3 1.66-.85 3.29-.61 5.04.27 1.98.83 3.9 1.12 5.87.03.24.15.48.28.69 1.19 1.9 2.29 3.85 3.75 5.57 1.11 1.32 2.39 2.42 4 3.1.61.26 1.23.54 1.77.92 1.43 1.03 3.03 1.72 4.63 2.42 2.4 1.04 4.87 1.95 6.97 3.58.19.15.44.26.67.32 1.47.36 2.8 1 4.09 1.8.92.57 1.94.98 3.05.98 1.41.01 2.04-1.07 1.44-2.36-.2-.43-.43-.91-.42-1.37.03-2.53-.68-5.09-.1-7.63z"/>
  <path fill="#495F57" d="M52.47 22.09c-2.34-.73-4.71-1.39-6.84-2.65-.54-.32-1.1-.57-1.73-.67-1.04-.16-1.99-.6-2.95-.99-.58-.24-1.08-.61-1.46-1.14-.65-.93-1.49-1.67-2.39-2.35-.87-.66-1.58-1.48-2.31-2.27-.17-.18-.4-.36-.32-.63.09-.29.39-.25.64-.27 1.04-.07 2.08-.19 3.11-.21 2.75-.04 5.5 0 8.24-.07 2.83-.08 5.66-.1 8.48-.36.91-.08 1.83-.02 2.74.03 2.16.11 4.33.07 6.5-.02.16-.01.33-.02.42-.24-.51-.26-1.01-.47-1.6-.45-.67.02-1.32-.13-1.97-.29-.4-.1-.82-.23-1.22-.23-2.71.01-5.33-.82-8.06-.69-1.65.08-3.3-.36-4.98-.27-.92.05-1.83.05-2.72.31-.65.19-1.32.23-1.98.14-1.72-.22-3.39.09-5.05.47-1.25.29-2.53.45-3.64 1.21-.43.29-.97.26-1.3-.29.97-.47 1.91-.96 2.6-1.85.58-.75 1.53-1.12 2.39-1.34 1.84-.48 3.34-1.61 5.01-2.4.36-.17.69-.4 1.09-.49 2.79-.61 5.52-1.46 8.46-1.21 2.19.19 4.41-.14 6.61.2 2.01.31 3.99.69 5.83 1.7 1.48.82 3.13 1.25 4.82 1.56 1.5.27 2.94.79 4.35 1.39.91.38 1.79.71 2.49 1.47.64.7 1 1.49 1.25 2.37.15.54.06.94-.37 1.33-1.38 1.27-2.85 2.4-4.54 3.27-6.18 3.19-12.73 5.09-19.6 5.93zM53.19 45.34c-.58 2.54.13 5.1.08 7.67-.01.45.22.94.42 1.37.6 1.29-.03 2.37-1.44 2.36-1.11-.01-2.14-.41-3.05-.98-1.28-.8-2.62-1.44-4.09-1.8-.24-.06-.48-.17-.67-.32-2.09-1.64-4.57-2.54-6.97-3.58-1.61-.7-3.2-1.4-4.63-2.42-.53-.38-1.15-.66-1.77-.92-1.61-.68-2.89-1.78-4-3.1-1.46-1.72-2.56-3.67-3.75-5.57a1.97 1.97 0 0 1-.28-.69c-.28-1.97-.85-3.89-1.12-5.87-.24-1.75.31-3.37.61-5.04.26-1.43.6-2.84.96-4.24.38-1.45.97-2.83 1.85-4.06.51-.71.95-1.46 1.26-2.28.36-.95.96-1.75 1.57-2.53.74-.95 2.25-1.27 3.36-.81.82.33 1.53.8 2.16 1.44.81.83 1.71 1.58 2.56 2.37.25.22.52.43.72.69 1.27 1.67 2.77 3.08 4.58 4.16.17.1.32.27.45.43 1.97 2.31 4.09 4.46 6.29 6.55.39.37.7.82.91 1.33.53 1.31 1.16 2.57 1.87 3.8.3.53.4 1.07.43 1.66.05 1.25-.02 2.52.68 3.67.18.3.22.72.23 1.09.06 1.7.35 3.36.72 5.01.06.16.05.37.06.61zm-5.67 2.67c-.22-.93-.61-1.43-.9-1.97-.92-1.67-2.14-3.18-2.78-5-.5-1.43-1.27-2.7-2.02-3.98-1.48-2.5-2.94-5.01-4.16-7.66-.69-1.5-1.6-2.9-2.6-4.23-.56-.74-1.11-1.51-1.42-2.42-.53-1.55-1.54-2.77-2.99-3.92.27 1.78.67 3.29 1.26 4.75.99 2.46 2.13 4.86 3.27 7.25 1.33 2.79 2.53 5.65 4.32 8.2.26.37.5.75.74 1.13.54.87.94 1.85 1.69 2.57.63.6 1.21 1.26 1.74 1.94 1.01 1.32 2.35 2.21 3.85 3.34z"/>
  <path fill="#F4CD13" d="M47.52 48.01c-1.5-1.13-2.84-2.02-3.85-3.32-.53-.68-1.1-1.34-1.74-1.94-.75-.72-1.15-1.7-1.69-2.57-.24-.38-.48-.76-.74-1.13-1.79-2.55-2.99-5.41-4.32-8.2-1.14-2.39-2.29-4.79-3.27-7.25-.59-1.46-.99-2.97-1.26-4.75 1.45 1.15 2.46 2.37 2.99 3.92.31.92.86 1.68 1.42 2.42 1 1.33 1.91 2.73 2.6 4.23 1.22 2.65 2.68 5.15 4.16 7.66.76 1.29 1.52 2.55 2.02 3.98.64 1.81 1.86 3.33 2.78 5 .29.52.68 1.02.9 1.95z"/>
</svg>
