<?xml version="1.0" encoding="utf-8"?>
<!-- Generator: Adobe Illustrator 27.4.1, SVG Export Plug-In . SVG Version: 6.00 Build 0)  -->
<svg version="1.1" id="Layer_1" xmlns="http://www.w3.org/2000/svg" xmlns:xlink="http://www.w3.org/1999/xlink" x="0px" y="0px"
	 width="546px" height="152px" viewBox="0 0 546 152" enable-background="new 0 0 546 152" xml:space="preserve">
<g>
	<path fill="#495E57" d="M275.83,90.21h-7.17V69.17c0.55-0.1,1.09-0.2,1.58-0.31c0.81-0.18,1.48-0.35,2.01-0.52l0.2-2.49h-13.17
		l-0.2,2.55l2.78,0.6v2.01h0v17.73h-0.01v1.83c-0.97,0.26-1.79,0.53-2.46,0.83l-0.2,2.49v0.01h12.04l0-0.01h9.54
		c0.89-3.12,1.34-6.47,1.33-10.05h-2.66L275.83,90.21z"/>
	<path fill="#495E57" d="M142.08,90.21h-7.18v-1.47V71.01v-1.84c0.55-0.1,1.09-0.2,1.58-0.31c0.81-0.18,1.48-0.35,2.01-0.52
		l0.2-2.49h-13.17l-0.2,2.55l2.78,0.6v2.01v17.73h0v1.83c-0.97,0.26-1.79,0.53-2.46,0.83l-0.2,2.49v0.01h12.04l0-0.01h9.54
		c0.89-3.12,1.33-6.47,1.33-10.05h-2.66L142.08,90.21z"/>
	<path fill="#495E57" d="M246.44,65.85h-24.02l0,0h0c-0.58,2.96-0.74,6.03-0.48,9.2h2.77l2.62-5.52h3.7v19.21h-0.01v1.86
		c-0.35,0.07-0.72,0.12-1.06,0.21c-0.63,0.15-1.25,0.35-1.85,0.59l-0.2,2.49v0.01h12.94l0.2-2.55l-3.22-0.6V69.53h3.69l2.62,5.52
		h2.77c0.27-3.16,0.1-6.22-0.48-9.18L246.44,65.85z"/>
	<path fill="#495E57" d="M170.4,88.74V71v-1.83c0.97-0.26,1.79-0.53,2.46-0.83l0.2-2.49v-0.01h-12.04l-0.2,2.55l2.78,0.6V71v17.74h0
		v1.83c-0.97,0.26-1.79,0.53-2.46,0.83l-0.2,2.49v0.01h12.04l0.2-2.55l-2.78-0.6V88.74z"/>
	<path fill="#495E57" d="M209.89,65.85h-24.02c-0.58,2.96-0.74,6.03-0.48,9.2h2.77l2.62-5.52h3.7v19.21v1.86
		c-0.35,0.07-0.72,0.12-1.06,0.21c-0.63,0.15-1.25,0.35-1.85,0.59l-0.2,2.49v0.01h12.94l0.2-2.55l-3.23-0.6v-2.01V69.53h3.69
		l2.62,5.52h2.77c0.27-3.16,0.1-6.22-0.48-9.18L209.89,65.85z"/>
	<path fill="#495E57" d="M312.39,90.21h-8.29v-1.47v-7.31h8.86l0.28-3.85h-9.14v-8.05h8.03l2.25,4.73h3.09
		c0.1-1.34,0.09-2.74-0.01-4.19c-0.11-1.45-0.31-2.86-0.61-4.22l-0.01,0.01l0-0.01h-10.08v-0.01h-12.04l-0.2,2.55l2.78,0.6V71h0
		v17.74v1.83c-0.97,0.26-1.79,0.53-2.46,0.83l-0.2,2.49v0.01h12.04l0-0.01h10.48l0-0.02c0.45-1.56,0.79-3.11,1-4.65
		c0.22-1.55,0.31-2.97,0.27-4.25h-3.03L312.39,90.21z"/>
	<path fill="#495E57" d="M366.64,90.21h-7.17V69.17c0.55-0.1,1.09-0.2,1.58-0.31c0.81-0.18,1.48-0.35,2.01-0.52l0.2-2.49h-13.17
		l-0.2,2.55l2.78,0.6v2.01h0v17.73h-0.01v1.83c-0.97,0.26-1.79,0.53-2.46,0.83l-0.2,2.49v0.01h12.04l0-0.01h9.54
		c0.89-3.12,1.33-6.47,1.33-10.05h-2.66L366.64,90.21z"/>
	<path fill="#495E57" d="M542.5,65.85L542.5,65.85l-9.6-0.01l-0.2,2.55l2.77,0.6v14.79L520.8,65.86l0,0l0-0.01h-6.94l-0.2,2.55
		l2.84,1v19.34h-0.01v1.83c-0.97,0.26-1.79,0.53-2.46,0.83l-0.2,2.49v0.01h10.16l0.2-2.55l-3.16-0.6V76.19l14.67,17.87h0
		c1.66,0.09,3.09,0.04,4.3-0.13l0-0.01l0,0V71h0.01v-1.83c0.84-0.23,1.61-0.51,2.29-0.83L542.5,65.85z"/>
	<path fill="#495E57" d="M494.23,67.14c-2.15-1.19-4.69-1.78-7.62-1.78s-5.47,0.6-7.62,1.78s-3.8,2.87-4.98,5.05
		c-1.18,2.18-1.76,4.76-1.76,7.72c0,2.94,0.59,5.5,1.76,7.67c1.17,2.17,2.83,3.85,4.98,5.04c2.15,1.19,4.68,1.78,7.59,1.78
		c2.94,0,5.5-0.57,7.65-1.76s3.8-2.88,4.98-5.06c1.18-2.18,1.76-4.76,1.76-7.72c0-2.96-0.59-5.53-1.76-7.69
		C498.04,70.01,496.38,68.33,494.23,67.14z M487.29,90.77c-2.35,0-4.15-1.04-5.43-3.12c-1.27-2.07-1.91-5.04-1.91-8.89
		c0-6.53,2-9.8,5.98-9.8c2.36,0,4.17,1.05,5.44,3.12c1.27,2.07,1.9,5.04,1.9,8.89C493.27,87.5,491.27,90.77,487.29,90.77z"/>
	<path fill="#495E57" d="M455.79,69.17c0.97-0.24,1.83-0.51,2.57-0.82l0.2-2.49h-6.58l0-0.01h-4.73l-6.41,18.82l-6.72-18.82h-6.97
		l0,0.01h-4.33l-0.2,2.55l2.93,0.61l-1.4,21.55c-0.91,0.25-1.68,0.52-2.3,0.83l-0.2,2.49h9.86l0.2-2.55l-3.06-0.6l0.99-18.13
		l7.31,19.85c0.83,0.06,1.7,0.07,2.62,0.05c0.92-0.03,1.8-0.08,2.65-0.16l0.01-0.06l7.31-19.84l0.97,18.12
		c-0.33,0.08-0.66,0.14-0.98,0.23c-0.67,0.18-1.26,0.38-1.77,0.59l-0.2,2.49v0.01h12.06l0.2-2.55l-2.61-0.6L455.79,69.17z"/>
	<path fill="#495E57" d="M403.2,90.21h-8.29v-1.47v-7.31h8.86l0.28-3.85h-9.14v-8.05h8.02l2.25,4.73h3.09
		c0.1-1.34,0.09-2.74-0.01-4.19c-0.11-1.45-0.31-2.86-0.61-4.22h0l0,0h-10.08v-0.01h-12.04l-0.2,2.55l2.78,0.6V71h0v17.74v1.83
		c-0.97,0.26-1.79,0.53-2.46,0.83l-0.2,2.49v0.01h12.04l0-0.01h10.47l0,0h0c0.45-1.57,0.79-3.13,1.01-4.67
		c0.22-1.55,0.31-2.97,0.27-4.25h-3.03L403.2,90.21z"/>
</g>
<path fill="#FEFEFF" d="M32.06,10.17c-0.12,0-0.27,0.05-0.37,0c-0.88-0.45-1.7-0.39-2.58,0.09c-0.71,0.38-1.51,0.68-2.3,0.81
	c-1.06,0.17-1.9,0.67-2.74,1.29c-0.78,0.57-1.35,1.39-2.16,1.86c-1.88,1.09-1.96,3.36-3.3,4.78c-0.04,0.05,0.03,0.29,0,0.46
	c-0.19,1.03-0.23,2.07-0.16,3.1s-0.16,2.01-0.3,2.99c-0.24,1.7-0.21,3.51-1.46,4.93c-0.25,0.28-0.42,0.63-0.49,1
	c-0.29,1.62-1.01,3.06-1.76,4.5c-0.48,0.91-0.81,1.91-1.15,2.89c-0.33,0.94-0.55,1.92-0.89,2.85c-0.63,1.72-1.35,3.39-2.68,4.73
	c-0.93,0.93-1.42,2.13-1.77,3.39c-0.45,1.64-0.5,3.48-1.58,4.81c-1.19,1.46-1.03,3.32-1.9,4.82c-0.02,0.04-0.03,0.08-0.06,0.11
	c-0.48,0.7-0.55,1.46-0.37,2.27c0.21,0.91,0.12,1.81,0.04,2.72C3.84,67.31,3,70.04,3.94,72.81c0.09,0.26,0.14,0.54,0.22,0.82
	c0.2,0.67,0.49,1.44,0.18,2.07c-0.57,1.18-0.38,2.33-0.1,3.49c0.3,1.22,0.43,2.46,0.4,3.7c-0.03,1.27,0.12,2.46,0.75,3.6
	c0.34,0.62,0.41,1.35,0.58,2.03c0.34,1.37,0.43,2.77,0.89,4.13c0.61,1.82,1.22,3.64,1.57,5.54c0.31,1.68,0.73,3.31,1.89,4.68
	c0.39,0.46,0.6,1.09,0.85,1.66c0.36,0.81,0.86,1.52,1.39,2.21c1.52,1.93,3.45,3.59,3.99,6.15c0.01,0.07,0.1,0.12,0.14,0.19
	c1.4,1.94,2.63,4.01,4.66,5.42c0.42,0.29,0.75,0.78,1,1.24c0.46,0.85,1.09,1.55,1.82,2.15c0.83,0.7,1.6,1.49,2.19,2.36
	c1.19,1.76,2.79,3.05,4.46,4.27c1.34,0.97,2.71,1.91,3.75,3.21c1.56,1.96,3.59,3.2,5.84,4.12c2.27,0.93,4.56,1.83,6.88,2.62
	c1.15,0.4,2.28,0.95,3.52,1.04c1.54,0.1,2.8,0.81,4.02,1.68c0.52,0.37,1.17,0.66,1.79,0.76c1.79,0.29,3.11,1.29,4.24,2.59
	c0.5,0.57,0.97,1.13,1.7,1.41c1.32,0.5,2.36,1.36,3.23,2.45c0.29,0.35,0.65,0.71,1.11,0.73c1.79,0.06,3.58,0.13,5.36-0.16
	c0.22-0.03,0.44-0.09,0.52-0.29c0.48-1.22,0.96-2.45,1.41-3.69c0.1-0.27-0.12-0.55-0.21-0.83c-0.23-0.72-0.29-1.45-0.2-2.21
	c0.23-2.03,0.86-3.95,1.51-5.86c0.31-0.91,0.64-1.93,1.44-2.57c0.84-0.66,1.27-1.5,1.53-2.48c0.22-0.84,0.43-1.68,0.69-2.5
	c0.35-1.09,0.59-2.22,1.34-3.16c0.96-1.21,1.78-2.49,1.96-4.09c0.04-0.33,0.12-0.66,0.26-0.96c1.15-2.61,2-5.31,2.62-8.09
	c0.39-1.74,0.97-3.44,1.84-5.01c0.22-0.4,0.44-0.8,0.46-1.27c0.05-1.38,0.39-2.7,0.79-4.01c0.07-0.24,0.18-0.48,0.18-0.72
	c-0.01-1.63,0.38-3.21,0.6-4.81c0.18-1.29,0.23-2.61,0.99-3.76c0.26-0.39,0.22-0.83,0.05-1.31c-0.43-1.2-0.45-2.39,0.02-3.63
	c0.28-0.74,0.38-1.59,0.38-2.43c0.02-1.91-0.1-3.82-0.06-5.73c0.04-2.09-0.01-4.12-0.9-6.07c-0.34-0.75-0.4-1.6-0.21-2.44
	c0.2-0.86,0.26-1.7-0.27-2.52c-0.23-0.36-0.29-0.84-0.39-1.28c-0.45-1.99-1.12-3.91-1.95-5.76c-0.77-1.7-1.38-3.42-1.52-5.29
	c-0.03-0.37-0.23-0.7-0.43-1.02c-1.12-1.82-2.55-3.48-2.95-5.68c-0.06-0.34-0.35-0.66-0.6-0.93c-1.27-1.34-2.05-2.99-2.94-4.57
	c-0.4-0.71-0.84-1.37-1.48-1.79c-1.19-0.78-1.94-1.88-2.66-3.04c-0.51-0.81-0.94-1.69-1.79-2.21c-0.97-0.59-1.73-1.42-2.53-2.2
	c-1.19-1.16-2.35-2.36-3.74-3.28c-1.34-0.88-2.47-2.08-4-2.63c-0.73-0.26-1.31-0.68-1.8-1.24c-0.69-0.79-1.45-1.44-2.55-1.61
	c-0.27-0.04-0.52-0.23-0.76-0.39c-1.61-1.03-3.03-2.29-4.46-3.54c6.87-0.85,13.42-2.74,19.59-5.92c1.68-0.87,3.15-1.99,4.54-3.27
	c0.43-0.39,0.52-0.79,0.37-1.33c-0.25-0.88-0.61-1.67-1.25-2.37c-0.7-0.76-1.58-1.09-2.49-1.47c-1.41-0.6-2.85-1.12-4.35-1.39
	c-1.68-0.31-3.33-0.74-4.82-1.56c-1.83-1.01-3.81-1.39-5.83-1.7c-2.19-0.34-4.41-0.02-6.61-0.2c-2.93-0.25-5.67,0.6-8.46,1.21
	c-0.4,0.09-0.73,0.32-1.09,0.49c-1.68,0.78-3.17,1.91-5.01,2.4c-0.86,0.23-1.81,0.59-2.39,1.34C33.97,9.21,33.03,9.7,32.06,10.17
	L32.06,10.17z"/>
<path fill="#F4CE14" d="M52.47,22.09c1.43,1.26,2.86,2.51,4.46,3.54c0.24,0.15,0.49,0.35,0.76,0.39c1.09,0.17,1.86,0.82,2.55,1.61
	c0.49,0.56,1.07,0.98,1.8,1.24c1.53,0.56,2.67,1.75,4,2.63c1.4,0.92,2.56,2.11,3.74,3.28c0.8,0.78,1.56,1.61,2.53,2.2
	c0.85,0.52,1.28,1.41,1.79,2.21c0.73,1.16,1.47,2.26,2.66,3.04c0.64,0.42,1.08,1.08,1.48,1.79c0.89,1.58,1.67,3.23,2.94,4.57
	c0.25,0.27,0.54,0.59,0.6,0.93c0.4,2.2,1.83,3.86,2.95,5.68c0.2,0.32,0.41,0.65,0.43,1.02c0.14,1.87,0.75,3.59,1.52,5.29
	c0.83,1.85,1.5,3.77,1.95,5.76c0.1,0.44,0.16,0.91,0.39,1.28c0.52,0.82,0.46,1.66,0.27,2.52c-0.19,0.84-0.13,1.69,0.21,2.44
	c0.89,1.95,0.94,3.98,0.9,6.07c-0.04,1.9,0.08,3.82,0.06,5.73c-0.01,0.84-0.1,1.68-0.38,2.43c-0.47,1.24-0.46,2.43-0.02,3.63
	c0.17,0.48,0.21,0.91-0.05,1.31c-0.76,1.15-0.81,2.47-0.99,3.76c-0.23,1.6-0.61,3.18-0.6,4.81c0,0.24-0.11,0.48-0.18,0.72
	c-0.39,1.31-0.74,2.63-0.79,4.01c-0.02,0.46-0.24,0.86-0.46,1.27c-0.87,1.58-1.45,3.27-1.84,5.01c-0.62,2.78-1.47,5.48-2.62,8.09
	c-0.13,0.3-0.22,0.63-0.26,0.96c-0.17,1.59-1,2.88-1.96,4.09c-0.75,0.94-0.98,2.07-1.34,3.16c-0.27,0.82-0.48,1.66-0.69,2.5
	c-0.25,0.99-0.69,1.82-1.53,2.48c-0.8,0.63-1.13,1.66-1.44,2.57c-0.65,1.91-1.28,3.83-1.51,5.86c-0.09,0.76-0.03,1.49,0.2,2.21
	c0.09,0.28,0.31,0.56,0.21,0.83c-0.44,1.24-0.92,2.46-1.41,3.69c-0.08,0.2-0.3,0.26-0.52,0.29c-1.78,0.29-3.57,0.21-5.36,0.16
	c-0.47-0.01-0.83-0.37-1.11-0.73c-0.88-1.08-1.92-1.94-3.23-2.45c-0.73-0.28-1.2-0.84-1.7-1.41c-1.13-1.3-2.46-2.3-4.24-2.59
	c-0.63-0.1-1.27-0.4-1.79-0.76c-1.23-0.86-2.48-1.57-4.02-1.68c-1.24-0.08-2.37-0.64-3.52-1.04c-2.32-0.8-4.61-1.69-6.88-2.62
	c-2.25-0.92-4.29-2.17-5.84-4.12c-1.03-1.3-2.41-2.24-3.75-3.21c-1.68-1.22-3.27-2.51-4.46-4.27c-0.59-0.87-1.36-1.66-2.19-2.36
	c-0.72-0.61-1.35-1.31-1.82-2.15c-0.25-0.46-0.58-0.95-1-1.24c-2.03-1.41-3.26-3.48-4.66-5.42c-0.05-0.06-0.13-0.12-0.14-0.19
	c-0.55-2.56-2.48-4.22-3.99-6.15c-0.53-0.68-1.04-1.4-1.39-2.21c-0.25-0.57-0.46-1.19-0.85-1.66c-1.16-1.36-1.58-3-1.89-4.68
	c-0.35-1.9-0.95-3.73-1.57-5.54c-0.46-1.35-0.55-2.76-0.89-4.13c-0.17-0.68-0.24-1.41-0.58-2.03c-0.63-1.13-0.77-2.33-0.75-3.6
	c0.03-1.24-0.11-2.48-0.4-3.7c-0.28-1.16-0.47-2.3,0.1-3.49c0.3-0.63,0.02-1.4-0.18-2.07c-0.08-0.27-0.14-0.56-0.22-0.82
	c-0.94-2.77-0.1-5.5,0.15-8.24c0.08-0.92,0.17-1.82-0.04-2.72c-0.19-0.8-0.11-1.57,0.37-2.27c0.02-0.03,0.03-0.08,0.06-0.11
	c0.87-1.5,0.71-3.36,1.9-4.82c1.08-1.33,1.13-3.17,1.58-4.81c0.34-1.25,0.84-2.46,1.77-3.39c1.34-1.34,2.06-3,2.68-4.73
	c0.34-0.93,0.56-1.91,0.89-2.85c0.34-0.98,0.67-1.97,1.15-2.89c0.76-1.44,1.47-2.88,1.76-4.5c0.07-0.37,0.24-0.72,0.49-1
	c1.25-1.42,1.22-3.23,1.46-4.93c0.14-0.98,0.37-1.97,0.3-2.99c-0.07-1.03-0.03-2.08,0.16-3.1c0.03-0.17-0.04-0.41,0-0.46
	c1.34-1.42,1.43-3.69,3.3-4.78c0.81-0.47,1.39-1.29,2.16-1.86c0.84-0.61,1.67-1.11,2.74-1.29c0.79-0.13,1.59-0.43,2.3-0.81
	c0.88-0.48,1.7-0.54,2.58-0.09c0.1,0.05,0.24,0,0.37,0c0.33,0.55,0.87,0.58,1.3,0.29c1.11-0.77,2.39-0.92,3.64-1.21
	c1.66-0.38,3.33-0.69,5.05-0.47c0.66,0.09,1.33,0.04,1.98-0.14c0.89-0.26,1.81-0.26,2.72-0.31c1.67-0.09,3.33,0.34,4.98,0.27
	c2.73-0.13,5.36,0.7,8.06,0.69c0.41,0,0.82,0.13,1.22,0.23c0.65,0.16,1.3,0.31,1.97,0.29c0.59-0.02,1.1,0.19,1.6,0.44
	c-0.08,0.22-0.25,0.24-0.42,0.24c-2.17,0.09-4.33,0.13-6.5,0.02c-0.92-0.05-1.83-0.11-2.74-0.03c-2.82,0.26-5.65,0.29-8.48,0.36
	c-2.75,0.07-5.5,0.03-8.24,0.07c-1.04,0.02-2.08,0.13-3.11,0.21c-0.24,0.02-0.55-0.02-0.64,0.27c-0.09,0.27,0.15,0.45,0.32,0.63
	c0.74,0.79,1.45,1.61,2.31,2.27c0.9,0.68,1.74,1.42,2.39,2.35c0.37,0.53,0.87,0.9,1.46,1.14c0.96,0.4,1.91,0.83,2.95,0.99
	c0.63,0.1,1.19,0.35,1.73,0.67C47.76,20.7,50.13,21.36,52.47,22.09L52.47,22.09z M53.19,45.34c-0.01-0.23,0-0.45-0.04-0.65
	c-0.38-1.65-0.66-3.31-0.72-5.01c-0.01-0.37-0.05-0.79-0.23-1.09c-0.7-1.15-0.63-2.42-0.68-3.67c-0.03-0.59-0.12-1.14-0.43-1.66
	c-0.71-1.22-1.34-2.49-1.87-3.8c-0.21-0.51-0.52-0.96-0.91-1.33c-2.2-2.09-4.32-4.24-6.29-6.55c-0.13-0.16-0.28-0.32-0.45-0.43
	c-1.81-1.08-3.31-2.49-4.58-4.16c-0.2-0.26-0.48-0.46-0.72-0.69c-0.86-0.79-1.75-1.54-2.56-2.37c-0.61-0.63-1.35-1.12-2.16-1.44
	c-1.11-0.45-2.62-0.13-3.36,0.81c-0.61,0.78-1.21,1.59-1.57,2.53c-0.31,0.82-0.75,1.57-1.26,2.28c-0.88,1.23-1.47,2.61-1.85,4.06
	c-0.37,1.4-0.71,2.82-0.96,4.24c-0.3,1.66-0.85,3.29-0.61,5.04c0.27,1.98,0.83,3.9,1.12,5.87c0.03,0.24,0.15,0.48,0.28,0.69
	c1.19,1.9,2.29,3.85,3.75,5.57c1.11,1.32,2.39,2.42,4,3.1c0.61,0.26,1.23,0.54,1.77,0.92c1.43,1.03,3.03,1.72,4.63,2.42
	c2.4,1.04,4.87,1.95,6.97,3.58c0.19,0.15,0.44,0.26,0.67,0.32c1.47,0.36,2.8,1,4.09,1.8c0.92,0.57,1.94,0.98,3.05,0.98
	c1.41,0.01,2.04-1.07,1.44-2.36c-0.2-0.43-0.43-0.91-0.42-1.37C53.32,50.44,52.61,47.88,53.19,45.34L53.19,45.34z"/>
<path fill="#495F57" d="M52.47,22.09c-2.34-0.73-4.71-1.39-6.84-2.65c-0.54-0.32-1.1-0.57-1.73-0.67c-1.04-0.16-1.99-0.6-2.95-0.99
	c-0.58-0.24-1.08-0.61-1.46-1.14c-0.65-0.93-1.49-1.67-2.39-2.35c-0.87-0.66-1.58-1.48-2.31-2.27c-0.17-0.18-0.4-0.36-0.32-0.63
	c0.09-0.29,0.39-0.25,0.64-0.27c1.04-0.07,2.08-0.19,3.11-0.21c2.75-0.04,5.5,0,8.24-0.07c2.83-0.08,5.66-0.1,8.48-0.36
	c0.91-0.08,1.83-0.02,2.74,0.03c2.16,0.11,4.33,0.07,6.5-0.02c0.16-0.01,0.33-0.02,0.42-0.24C64.09,9.99,63.59,9.78,63,9.8
	c-0.67,0.02-1.32-0.13-1.97-0.29c-0.4-0.1-0.82-0.23-1.22-0.23c-2.71,0.01-5.33-0.82-8.06-0.69c-1.65,0.08-3.3-0.36-4.98-0.27
	c-0.92,0.05-1.83,0.05-2.72,0.31c-0.65,0.19-1.32,0.23-1.98,0.14c-1.72-0.22-3.39,0.09-5.05,0.47c-1.25,0.29-2.53,0.45-3.64,1.21
	c-0.43,0.29-0.97,0.26-1.3-0.29c0.97-0.47,1.91-0.96,2.6-1.85c0.58-0.75,1.53-1.12,2.39-1.34c1.84-0.48,3.34-1.61,5.01-2.4
	c0.36-0.17,0.69-0.4,1.09-0.49c2.79-0.61,5.52-1.46,8.46-1.21c2.19,0.19,4.41-0.14,6.61,0.2c2.01,0.31,3.99,0.69,5.83,1.7
	c1.48,0.82,3.13,1.25,4.82,1.56c1.5,0.27,2.94,0.79,4.35,1.39c0.91,0.38,1.79,0.71,2.49,1.47c0.64,0.7,1,1.49,1.25,2.37
	c0.15,0.54,0.06,0.94-0.37,1.33c-1.38,1.27-2.85,2.4-4.54,3.27C65.89,19.35,59.34,21.25,52.47,22.09L52.47,22.09z M53.19,45.34
	c-0.58,2.54,0.13,5.1,0.08,7.67c-0.01,0.45,0.22,0.94,0.42,1.37c0.6,1.29-0.03,2.37-1.44,2.36c-1.11-0.01-2.14-0.41-3.05-0.98
	c-1.28-0.8-2.62-1.44-4.09-1.8c-0.24-0.06-0.48-0.17-0.67-0.32c-2.09-1.64-4.57-2.54-6.97-3.58c-1.61-0.7-3.2-1.4-4.63-2.42
	c-0.53-0.38-1.15-0.66-1.77-0.92c-1.61-0.68-2.89-1.78-4-3.1c-1.46-1.72-2.56-3.67-3.75-5.57c-0.14-0.21-0.23-0.44-0.28-0.69
	c-0.28-1.97-0.85-3.89-1.12-5.87c-0.24-1.75,0.31-3.37,0.61-5.04c0.26-1.43,0.6-2.84,0.96-4.24c0.38-1.45,0.97-2.83,1.85-4.06
	c0.51-0.71,0.95-1.46,1.26-2.28c0.36-0.95,0.96-1.75,1.57-2.53c0.74-0.95,2.25-1.27,3.36-0.81c0.82,0.33,1.53,0.8,2.16,1.44
	c0.81,0.83,1.71,1.58,2.56,2.37c0.25,0.22,0.52,0.43,0.72,0.69c1.27,1.67,2.77,3.08,4.58,4.16c0.17,0.1,0.32,0.27,0.45,0.43
	c1.97,2.31,4.09,4.46,6.29,6.55c0.39,0.37,0.7,0.82,0.91,1.33c0.53,1.31,1.16,2.57,1.87,3.8c0.3,0.53,0.4,1.07,0.43,1.66
	c0.05,1.25-0.02,2.52,0.68,3.67c0.18,0.3,0.22,0.72,0.23,1.09c0.06,1.7,0.35,3.36,0.72,5.01C53.19,44.89,53.18,45.1,53.19,45.34
	L53.19,45.34z M47.52,48.01c-0.22-0.93-0.61-1.43-0.9-1.97c-0.92-1.67-2.14-3.18-2.78-5c-0.5-1.43-1.27-2.7-2.02-3.98
	c-1.48-2.5-2.94-5.01-4.16-7.66c-0.69-1.5-1.6-2.9-2.6-4.23c-0.56-0.74-1.11-1.51-1.42-2.42c-0.53-1.55-1.54-2.77-2.99-3.92
	c0.27,1.78,0.67,3.29,1.26,4.75c0.99,2.46,2.13,4.86,3.27,7.25c1.33,2.79,2.53,5.65,4.32,8.2c0.26,0.37,0.5,0.75,0.74,1.13
	c0.54,0.87,0.94,1.85,1.69,2.57c0.63,0.6,1.21,1.26,1.74,1.94C44.68,45.99,46.02,46.88,47.52,48.01z"/>
<path fill="#F4CD13" d="M47.52,48.01c-1.5-1.13-2.84-2.02-3.85-3.32c-0.53-0.68-1.1-1.34-1.74-1.94c-0.75-0.72-1.15-1.7-1.69-2.57
	c-0.24-0.38-0.48-0.76-0.74-1.13c-1.79-2.55-2.99-5.41-4.32-8.2c-1.14-2.39-2.29-4.79-3.27-7.25c-0.59-1.46-0.99-2.97-1.26-4.75
	c1.45,1.15,2.46,2.37,2.99,3.92c0.31,0.92,0.86,1.68,1.42,2.42c1,1.33,1.91,2.73,2.6,4.23c1.22,2.65,2.68,5.15,4.16,7.66
	c0.76,1.29,1.52,2.55,2.02,3.98c0.64,1.81,1.86,3.33,2.78,5C46.91,46.58,47.3,47.08,47.52,48.01z"/>
</svg>
